<?xml version="1.0" encoding="UTF-8" standalone="no"?>
<!-- Created with Inkscape (http://www.inkscape.org/) -->
<svg xmlns:svg="http://www.w3.org/2000/svg" xmlns="http://www.w3.org/2000/svg" xmlns:xlink="http://www.w3.org/1999/xlink" version="1.0" width="540" height="660" id="svg2">
  <defs id="defs4">
    <linearGradient id="linearGradient3211">
      <stop style="stop-color:#d5d5d5;stop-opacity:1" offset="0" id="stop3213"/>
      <stop style="stop-color:#d5d5d5;stop-opacity:0" offset="1" id="stop3215"/>
    </linearGradient>
    <linearGradient x1="283.01562" y1="603.06287" x2="306.86871" y2="623.22375" id="linearGradient3217" xlink:href="#linearGradient3211" gradientUnits="userSpaceOnUse" gradientTransform="translate(-96,-144)"/>
  </defs>
  <g style="opacity:1;display:inline" id="layer2">
    <path d="M 116,518.11218 C 126.51037,558.6326 91.53817,603.8929 67.5,636.86218 C 110.36939,612.96804 146.70777,581.7942 150.25,547.86218 C 136.82445,537.94554 124.97239,528.52879 116,518.11218 z " style="opacity:1;color:#000000;fill:#d5d5d5;fill-opacity:1;fill-rule:evenodd;stroke:none;stroke-width:0.40000001;stroke-linecap:butt;stroke-linejoin:miter;marker:none;marker-start:none;marker-mid:none;marker-end:none;stroke-miterlimit:4;stroke-dasharray:none;stroke-dashoffset:0;stroke-opacity:1;visibility:visible;display:inline;overflow:visible;enable-background:accumulate" id="path3234"/>
    <path d="M 63.09903,388.28514 C 57.5962,425.26472 87.01819,472.2288 27.74369,541.37376 C 78.69865,520.27993 80.36014,488.79246 99.16147,477.73415 C 96.41584,439.96765 85.62766,409.09478 63.09903,388.28514 z " style="opacity:1;color:#000000;fill:#d5d5d5;fill-opacity:1;fill-rule:evenodd;stroke:none;stroke-width:0.40000001;stroke-linecap:butt;stroke-linejoin:miter;marker:none;marker-start:none;marker-mid:none;marker-end:none;stroke-miterlimit:4;stroke-dasharray:none;stroke-dashoffset:0;stroke-opacity:1;visibility:visible;display:inline;overflow:visible;enable-background:accumulate" id="path3232"/>
    <path d="M 155,103.61218 C 129.7773,117.12052 105.79657,131.00835 97.25,149.61218 C -5.935783,247.56036 2.616966,339.09972 42.5,377.86218 C 42.17921,363.92782 40.55741,349.6682 43.75,336.61218 C 49.007,369.27174 64.1385,400.58087 93.75,414.11218 C 80.09938,372.58377 74.97972,331.51649 96,291.86218 C 96.86937,324.78842 99.73856,357.08971 115.5,385.36218 C 115.51713,345.2554 123.62982,303.82461 147,263.61218 C 147.75403,286.8015 150.84921,315.51633 165.25,345.86218 C 164.35835,321.86795 171.18899,285.0252 181.375,276.61218 C 188.02876,309.66338 201.04242,340.21605 217,369.61218 C 207.90964,324.67791 208.67221,281.05736 229.5,240.11218 C 232.68451,267.33183 238.13556,293.87151 251.25,318.11218 C 250.84018,282.95603 258.32959,250.68613 275.25,221.86218 C 274.21832,287.59714 305.5072,372.95324 331.75,395.11218 C 320.62893,346.04237 315.12943,282.67806 328.5,246.61218 L 335,261.48718 L 340.25,249.11218 C 362.9078,295.70839 351.41667,343.48718 352.5,390.11218 C 374.18625,357.4163 380.04474,319.66901 386.5,282.11218 C 397.875,316.44551 405.6048,391.73049 413.5,403.11218 L 441.75,348.36218 C 458.32638,347.03029 474.25551,330.69027 486,343.61218 C 515.02908,316.14124 531.1925,260.54717 514.21628,208.57046 C 506.85327,186.02687 487.77778,170.17067 471,147.11218 C 475.92851,147.68663 481.9368,147.45125 488.75,146.61218 C 431.77065,109.01798 349.73599,52.13274 323.25,57.61218 C 321.49895,43.44307 324.58118,23.81026 316,17.36218 C 318.49204,48.1982 310.28368,59.47833 303.5,73.36218 C 235.77651,42.45076 201.94676,28.14292 154.5,64.11218 C 186.26592,55.70664 218.20737,49.26109 252.75,71.86218 C 207.59767,71.86793 162.36867,76.65316 116.75,105.11218 C 129.3944,105.37209 149.59067,100.44184 155,103.61218 z " style="opacity:1;color:#000000;fill:#d5d5d5;fill-opacity:1;fill-rule:evenodd;stroke:none;stroke-width:0.40000001;stroke-linecap:butt;stroke-linejoin:miter;marker:none;marker-start:none;marker-mid:none;marker-end:none;stroke-miterlimit:4;stroke-dasharray:none;stroke-dashoffset:0;stroke-opacity:1;visibility:visible;display:inline;overflow:visible;enable-background:accumulate" id="path3230"/>
    <path d="M 304.02041,70.94572 C 262.81455,60.2884 209.14023,8.53272 143.15362,70.94572 C 176.65701,57.37472 210.41294,52.80669 247.45187,69.17795 L 255.78562,73.72364 C 238.3311,56.91715 198.95616,47.63641 160.32621,61.85434 C 213.63753,22.75564 255.9872,58.14819 303.26279,75.23887 L 304.02041,70.94572 z " style="fill:#000000;fill-opacity:1;fill-rule:evenodd;stroke:none;stroke-width:0.30000001;stroke-linecap:butt;stroke-linejoin:miter;stroke-miterlimit:4;stroke-dasharray:none;stroke-opacity:1" id="path3191"/>
    <path d="M 303.26279,75.23887 C 309.36776,69.44222 320.65184,40.65411 317.24492,20.09187 C 321.42663,24.70211 321.73416,43.87088 322.03572,57.82647 L 324.17857,56.21932 C 323.27394,31.64313 324.86175,10.27469 304.81079,11.63907 C 325.1866,13.43121 309.45127,59.75562 303.93647,70.92396 L 303.26279,75.23887 z " style="fill:#000000;fill-opacity:1;fill-rule:evenodd;stroke:none;stroke-width:0.2;stroke-linecap:butt;stroke-linejoin:miter;stroke-miterlimit:4;stroke-dasharray:none;stroke-opacity:1" id="path3193"/>
    <path d="M 322.03572,57.82647 L 324.17857,56.21932 C 335.96249,51.37763 364.74098,70.44861 378.26662,74.98633 C 397.27597,81.36378 437.25652,111.26179 449.98745,119.93812 C 462.61819,128.54617 488.09092,144.20959 495.07143,147.6479 C 486.78864,148.84735 480.00838,148.54427 473.10714,148.36218 L 469.53572,145.1479 C 476.74497,145.86448 478.99507,146.23752 484.53571,145.68361 C 442.63503,122.961 397.24578,84.27279 377.03572,77.46932 C 359.40476,71.53407 332.17956,52.40312 322.03571,60.68361 C 318.52098,63.55271 313.63687,68.68527 310.78571,74.61218 C 310.02057,66.96514 317.05946,61.50851 322.03572,57.82647 z " style="opacity:1;color:#000000;fill:#000000;fill-opacity:1;fill-rule:evenodd;stroke:none;stroke-width:0.2;stroke-linecap:butt;stroke-linejoin:miter;marker:none;marker-start:none;marker-mid:none;marker-end:none;stroke-miterlimit:4;stroke-dasharray:none;stroke-dashoffset:0;stroke-opacity:1;visibility:visible;display:inline;overflow:visible;enable-background:accumulate" id="path3132"/>
    <path d="M 416,106.23718 C 418.12581,113.28856 437.01631,117.97968 453.375,138.61218 C 460.39673,147.46839 468.17306,162.88863 475.125,175.36218 C 471.25805,164.8439 465.90416,154.54801 460.375,144.36218 L 457.5,139.73718 C 446.2645,125.50982 434.03043,116.90627 416,106.23718 z " style="opacity:1;color:#000000;fill:#000000;fill-opacity:1;fill-rule:evenodd;stroke:none;stroke-width:0.2;stroke-linecap:butt;stroke-linejoin:miter;marker:none;marker-start:none;marker-mid:none;marker-end:none;stroke-miterlimit:4;stroke-dasharray:none;stroke-dashoffset:0;stroke-opacity:1;visibility:visible;display:inline;overflow:visible;enable-background:accumulate" id="path3134"/>
    <path d="M 417.5,125.98718 C 433.45387,134.48895 447.98452,158.73169 454.75,191.23718 C 433.10706,131.07397 419.62926,133.69995 417.5,125.98718 z " style="opacity:1;color:#000000;fill:#000000;fill-opacity:1;fill-rule:evenodd;stroke:none;stroke-width:0.2;stroke-linecap:butt;stroke-linejoin:miter;marker:none;marker-start:none;marker-mid:none;marker-end:none;stroke-miterlimit:4;stroke-dasharray:none;stroke-dashoffset:0;stroke-opacity:1;visibility:visible;display:inline;overflow:visible;enable-background:accumulate" id="path3136"/>
    <path d="M 457.5,139.73718 C 461.31004,142.14636 465.2294,144.22758 469.53572,145.1479 L 468.5625,146.92468 C 465.65449,146.40345 462.60508,145.8402 460.375,144.36218 L 457.5,139.73718 z " style="opacity:1;color:#000000;fill:#000000;fill-opacity:1;fill-rule:evenodd;stroke:none;stroke-width:0.2;stroke-linecap:butt;stroke-linejoin:miter;marker:none;marker-start:none;marker-mid:none;marker-end:none;stroke-miterlimit:4;stroke-dasharray:none;stroke-dashoffset:0;stroke-opacity:1;visibility:visible;display:inline;overflow:visible;enable-background:accumulate" id="path3138"/>
    <path d="M 468.5625,146.92468 C 488.08609,179.39909 502.70141,177.86359 512.50828,207.59792 C 522.7882,238.76654 519.58994,264.34558 513.7598,287.13016 C 507.09005,313.196 498.15931,330.65031 485.8855,341.57919 L 488.35204,344.27651 C 504.14081,331.15622 512.20702,311.67033 517.79381,288.25917 C 524.79404,258.92508 526.97766,235.9849 516.35447,205.49804 C 505.31636,173.82042 496.47363,178.93036 473.10714,148.36218 L 469.53572,145.1479 L 468.5625,146.92468 z " style="opacity:1;color:#000000;fill:#000000;fill-opacity:1;fill-rule:evenodd;stroke:none;stroke-width:0.2;stroke-linecap:butt;stroke-linejoin:miter;marker:none;marker-start:none;marker-mid:none;marker-end:none;stroke-miterlimit:4;stroke-dasharray:none;stroke-dashoffset:0;stroke-opacity:1;visibility:visible;display:inline;overflow:visible;enable-background:accumulate" id="path3140"/>
    <path d="M 482.625,198.11218 C 488.08874,217.79748 488.76343,236.79862 487.25,255.48718 C 492.39991,234.56688 491.14056,215.36614 482.625,198.11218 z " style="opacity:1;color:#000000;fill:#000000;fill-opacity:1;fill-rule:evenodd;stroke:none;stroke-width:0.2;stroke-linecap:butt;stroke-linejoin:miter;marker:none;marker-start:none;marker-mid:none;marker-end:none;stroke-miterlimit:4;stroke-dasharray:none;stroke-dashoffset:0;stroke-opacity:1;visibility:visible;display:inline;overflow:visible;enable-background:accumulate" id="path3142"/>
    <path d="M 480.75,335.73718 C 479.73579,333.06386 494.57024,316.99298 510,293.11218 C 500.70282,308.87246 487.23894,334.11436 480.75,335.73718 z " style="opacity:1;color:#000000;fill:#000000;fill-opacity:1;fill-rule:evenodd;stroke:none;stroke-width:0.2;stroke-linecap:butt;stroke-linejoin:miter;marker:none;marker-start:none;marker-mid:none;marker-end:none;stroke-miterlimit:4;stroke-dasharray:none;stroke-dashoffset:0;stroke-opacity:1;visibility:visible;display:inline;overflow:visible;enable-background:accumulate" id="path3144"/>
    <path d="M 255.78562,73.72364 L 247.45187,69.17795 C 191.515,68.7359 153.78441,80.94989 110.625,108.11219 C 123.22999,105.74885 136.79332,104.823 150,103.36219 L 152.25,100.86219 C 142.4352,101.76231 133.58825,102.10938 121.625,104.23719 C 160.38825,83.45482 199.60341,70.64298 255.78562,73.72364 z " style="opacity:1;color:#000000;fill:#000000;fill-opacity:1;fill-rule:evenodd;stroke:none;stroke-width:0.2;stroke-linecap:butt;stroke-linejoin:miter;marker:none;marker-start:none;marker-mid:none;marker-end:none;stroke-miterlimit:4;stroke-dasharray:none;stroke-dashoffset:0;stroke-opacity:1;visibility:visible;display:inline;overflow:visible;enable-background:accumulate" id="path3146"/>
    <path d="M 119.625,379.7283 C 117.286,399.82821 118.29368,418.53185 131.91789,426.60177 C 157.75484,432.87039 166.1964,417.94532 173,409.73718 C 167.3802,392.8553 158.67138,377.66739 132.625,371.98718 L 119.625,379.7283 z " style="opacity:1;color:#000000;fill:#d5d5d5;fill-opacity:1;fill-rule:evenodd;stroke:none;stroke-width:0.40000001;stroke-linecap:butt;stroke-linejoin:miter;marker:none;marker-start:none;marker-mid:none;marker-end:none;stroke-miterlimit:4;stroke-dasharray:none;stroke-dashoffset:0;stroke-opacity:1;visibility:visible;display:inline;overflow:visible;enable-background:accumulate" id="path3218"/>
    <path d="M 152.25,100.86219 L 170.2257,101.19979 C 151.15273,106.30366 143.02425,112.79637 127.60342,121.05465 C 116.70439,126.89138 108.83352,136.68971 98.98469,150.69727 C 23.14996,217.74452 -10.484264,315.55184 41.74186,375.40492 C 40.58161,352.98878 34.81523,324.3019 54.09489,290.63657 C 48.6558,306.2447 43.06905,319.29417 45.51981,335.44314 L 44.00798,343.34278 C 42.35801,357.33787 43.96227,369.95796 44.67885,381.95304 C -23.82984,311.92643 31.39317,206.19656 95.62593,148.2224 C 116.72624,118.19489 120.79996,125.15908 150,103.36219 L 152.25,100.86219 z " style="opacity:1;color:#000000;fill:#000000;fill-opacity:1;fill-rule:evenodd;stroke:none;stroke-width:0.2;stroke-linecap:butt;stroke-linejoin:miter;marker:none;marker-start:none;marker-mid:none;marker-end:none;stroke-miterlimit:4;stroke-dasharray:none;stroke-dashoffset:0;stroke-opacity:1;visibility:visible;display:inline;overflow:visible;enable-background:accumulate" id="path3148"/>
    <path d="M 45.51981,335.44314 C 50.78871,369.73637 63.32645,392.59602 91.5,411.61218 C 80.85757,379.88263 67.04131,337.35652 103,276.36218 C 100.66494,280.94379 99.01914,285.21465 97.5,290.11218 L 95.5,294.61218 C 74.83011,338.28526 83.80662,384.55006 96.125,417.61218 C 71.27426,403.80687 50.67203,383.82322 44.00798,343.34278 L 45.51981,335.44314 z " style="opacity:1;color:#000000;fill:#000000;fill-opacity:1;fill-rule:evenodd;stroke:none;stroke-width:0.2;stroke-linecap:butt;stroke-linejoin:miter;marker:none;marker-start:none;marker-mid:none;marker-end:none;stroke-miterlimit:4;stroke-dasharray:none;stroke-dashoffset:0;stroke-opacity:1;visibility:visible;display:inline;overflow:visible;enable-background:accumulate" id="path3150"/>
    <path d="M 97.5,290.11218 C 97.05197,324.91953 102.43123,355.06323 114.75,381.86218 C 110.68821,320.37024 144.57923,255.40259 165.375,235.86218 C 158.78415,245.61218 153.17448,253.36218 148.25,262.36218 L 146.5,266.61218 C 129.04992,302.55113 114.5402,344.06183 117,389.61218 C 107.50024,379.95181 93.17165,334.72838 95.5,294.61218 L 97.5,290.11218 z " style="opacity:1;color:#000000;fill:#000000;fill-opacity:1;fill-rule:evenodd;stroke:none;stroke-width:0.2;stroke-linecap:butt;stroke-linejoin:miter;marker:none;marker-start:none;marker-mid:none;marker-end:none;stroke-miterlimit:4;stroke-dasharray:none;stroke-dashoffset:0;stroke-opacity:1;visibility:visible;display:inline;overflow:visible;enable-background:accumulate" id="path3152"/>
    <path d="M 159.08877,350.80849 C 136.21479,335.39982 102.67123,341.49128 70.8772,357.17245 C 95.70568,327.66763 144.97654,328.2671 159.08877,350.80849 z " style="opacity:1;color:#000000;fill:#000000;fill-opacity:1;fill-rule:evenodd;stroke:none;stroke-width:0.2;stroke-linecap:butt;stroke-linejoin:miter;marker:none;marker-start:none;marker-mid:none;marker-end:none;stroke-miterlimit:4;stroke-dasharray:none;stroke-dashoffset:0;stroke-opacity:1;visibility:visible;display:inline;overflow:visible;enable-background:accumulate" id="path3154"/>
    <path d="M 260.02826,361.41509 C 315.40693,318.23787 355.73873,321.54278 384.1255,362.47575 C 343.53601,330.80595 312.59905,334.78913 260.02826,361.41509 z " style="opacity:1;color:#000000;fill:#000000;fill-opacity:1;fill-rule:evenodd;stroke:none;stroke-width:0.2;stroke-linecap:butt;stroke-linejoin:miter;marker:none;marker-start:none;marker-mid:none;marker-end:none;stroke-miterlimit:4;stroke-dasharray:none;stroke-dashoffset:0;stroke-opacity:1;visibility:visible;display:inline;overflow:visible;enable-background:accumulate" id="path3156"/>
    <path d="M 141.75,411.36218 C 150.22131,410.84459 152.92041,400.81764 153.25,394.86218 C 153.77517,385.3728 150.96197,378.07548 143.5,377.86218 C 137.24506,377.68338 133.74073,385.00288 134.25,396.11218 C 134.85827,409.38101 138.19343,411.57949 141.75,411.36218 z " style="opacity:1;color:#000000;fill:#000000;fill-opacity:1;fill-rule:evenodd;stroke:none;stroke-width:0.2;stroke-linecap:butt;stroke-linejoin:miter;marker:none;marker-start:none;marker-mid:none;marker-end:none;stroke-miterlimit:4;stroke-dasharray:none;stroke-dashoffset:0;stroke-opacity:1;visibility:visible;display:inline;overflow:visible;enable-background:accumulate" id="path3212"/>
    <path d="M 120.72823,387.75481 C 120.90699,395.37558 123.25764,399.38229 129.03673,399.95241 C 133.26335,399.85438 136.45938,397.27388 137.87557,386.87093 C 138.66835,381.04457 136.8916,376.72561 129.03673,377.14821 C 123.43243,378.10666 121.15699,382.09133 120.72823,387.75481 z " style="opacity:1;color:#000000;fill:#ffffff;fill-opacity:1;fill-rule:evenodd;stroke:none;stroke-width:0.40000001;stroke-linecap:butt;stroke-linejoin:miter;marker:none;marker-start:none;marker-mid:none;marker-end:none;stroke-miterlimit:4;stroke-dasharray:none;stroke-dashoffset:0;stroke-opacity:1;visibility:visible;display:inline;overflow:visible;enable-background:accumulate" id="path3224"/>
    <path d="M 173.75,414.11218 C 172.44862,379.99766 136.66823,364.561 129.54289,365.03375 C 108.35987,370.83347 92.93867,381.45305 87.74264,393.48045 C 92.90644,402.06665 96.24844,415.47465 109.35355,422.86954 C 104.91869,415.26379 101.22897,407.21095 100.10355,397.61954 C 113.78303,383.77833 121.12148,381.81099 131.75,375.86218 C 158.50223,375.5413 171.40793,401.77775 173.75,414.11218 z " style="opacity:1;color:#000000;fill:#000000;fill-opacity:1;fill-rule:evenodd;stroke:none;stroke-width:0.2;stroke-linecap:butt;stroke-linejoin:miter;marker:none;marker-start:none;marker-mid:none;marker-end:none;stroke-miterlimit:4;stroke-dasharray:none;stroke-dashoffset:0;stroke-opacity:1;visibility:visible;display:inline;overflow:visible;enable-background:accumulate" id="path3158"/>
    <path d="M 298.75,381.23718 C 291.15652,397.51539 294.40219,414.8319 302.875,427.73718 C 317.38646,431.02356 332.81017,425.47468 348.625,415.23718 C 350.75948,412.30773 351.63091,409.0124 352.56826,406.38223 C 350.05892,392.01657 337.29354,383.19364 323.75,377.36218 C 315.70348,376.22059 306.85237,377.17389 298.75,381.23718 z " style="opacity:1;color:#000000;fill:#d5d5d5;fill-opacity:1;fill-rule:evenodd;stroke:none;stroke-width:0.40000001;stroke-linecap:butt;stroke-linejoin:miter;marker:none;marker-start:none;marker-mid:none;marker-end:none;stroke-miterlimit:4;stroke-dasharray:none;stroke-dashoffset:0;stroke-opacity:1;visibility:visible;display:inline;overflow:visible;enable-background:accumulate" id="path3220"/>
    <path d="M 319.5,415.61218 C 325.42245,415.57405 330.84648,407.17608 330.5,398.86218 C 330.12427,389.84637 327.79353,382.19877 320.13234,382.62829 C 310.53007,383.16664 309.46338,392.60829 309.75,401.11218 C 309.95672,407.24558 312.66035,415.65621 319.5,415.61218 z " style="opacity:1;color:#000000;fill:#000000;fill-opacity:1;fill-rule:evenodd;stroke:none;stroke-width:0.2;stroke-linecap:butt;stroke-linejoin:miter;marker:none;marker-start:none;marker-mid:none;marker-end:none;stroke-miterlimit:4;stroke-dasharray:none;stroke-dashoffset:0;stroke-opacity:1;visibility:visible;display:inline;overflow:visible;enable-background:accumulate" id="path3214"/>
    <path d="M 297.3402,391.08095 C 297.53444,398.70172 300.08868,402.70843 306.36827,403.27855 C 310.96095,403.18052 314.43378,400.60002 315.97262,390.19707 C 316.83406,384.37071 314.90344,380.05175 306.36827,380.47435 C 300.27861,381.4328 297.8061,385.41747 297.3402,391.08095 z " style="opacity:1;color:#000000;fill:#ffffff;fill-opacity:1;fill-rule:evenodd;stroke:none;stroke-width:0.40000001;stroke-linecap:butt;stroke-linejoin:miter;marker:none;marker-start:none;marker-mid:none;marker-end:none;stroke-miterlimit:4;stroke-dasharray:none;stroke-dashoffset:0;stroke-opacity:1;visibility:visible;display:inline;overflow:visible;enable-background:accumulate" id="path3226"/>
    <path d="M 257.4624,408.68033 C 265.56773,393.02327 288.58854,368.53555 323.22333,367.31459 C 331.76208,367.01357 340.14212,373.53937 347.08146,379.56349 C 353.07042,384.76257 352.28537,387.78711 355.28023,390.94677 C 357.41012,392.65381 358.93684,393.3617 362.1142,393.30076 C 359.57254,395.14705 356.43384,394.00819 353.45214,393.65431 C 357.35749,396.4726 360.91786,398.25595 363.88197,398.25051 C 361.34817,399.39981 358.81437,399.3844 356.28057,399.13439 C 358.92763,402.60429 362.01356,405.30619 366.53362,405.49835 C 363.7081,406.78599 361.4978,406.22796 359.109,406.20546 C 361.50601,408.5393 363.53702,409.16764 367.4175,409.74099 C 357.48663,410.24376 356.67449,410.82021 352.56826,406.38223 C 350.48606,395.73177 336.19631,382.21696 321.63234,378.62829 C 292.3238,377.9697 274.56649,393.89127 257.4624,408.68033 z " style="opacity:1;color:#000000;fill:#000000;fill-opacity:1;fill-rule:evenodd;stroke:none;stroke-width:0.2;stroke-linecap:butt;stroke-linejoin:miter;marker:none;marker-start:none;marker-mid:none;marker-end:none;stroke-miterlimit:4;stroke-dasharray:none;stroke-dashoffset:0;stroke-opacity:1;visibility:visible;display:inline;overflow:visible;enable-background:accumulate" id="path3160"/>
    <path d="M 146.5,266.61218 C 144.51722,317.88614 165.96691,334.90197 169.25,372.36218 C 170.10862,357.50359 166.78082,348.99795 166.95607,334.11447 C 167.09835,322.28062 169.56341,295.73817 180,279.36218 L 179.75,276.11218 C 169.4449,289.52934 164.73583,313.46009 164,338.61218 C 151.7784,309.60745 148.04467,290.10473 148.25,262.36218 L 146.5,266.61218 z " style="opacity:1;color:#000000;fill:#000000;fill-opacity:1;fill-rule:evenodd;stroke:none;stroke-width:0.2;stroke-linecap:butt;stroke-linejoin:miter;marker:none;marker-start:none;marker-mid:none;marker-end:none;stroke-miterlimit:4;stroke-dasharray:none;stroke-dashoffset:0;stroke-opacity:1;visibility:visible;display:inline;overflow:visible;enable-background:accumulate" id="path3162"/>
    <path d="M 179.94842,239.61595 C 179.29252,251.78136 178.57197,263.94677 179.75,276.11218 L 180,279.36218 C 183.82849,304.03725 203.24823,349.40492 221.8445,383.15862 C 212.522,345.77869 205.86046,288.24436 229.26912,244.21214 L 228.03168,237.49463 C 207.50946,279.88363 206.43485,327.03354 215.30376,364.59707 C 181.35928,294.1701 180.79322,273.49672 179.94842,239.61595 z " style="opacity:1;color:#000000;fill:#000000;fill-opacity:1;fill-rule:evenodd;stroke:none;stroke-width:0.2;stroke-linecap:butt;stroke-linejoin:miter;marker:none;marker-start:none;marker-mid:none;marker-end:none;stroke-miterlimit:4;stroke-dasharray:none;stroke-dashoffset:0;stroke-opacity:1;visibility:visible;display:inline;overflow:visible;enable-background:accumulate" id="path3164"/>
    <path d="M 228.73878,216.63498 C 227.95953,224.70778 227.51473,230.48249 228.03168,237.49463 L 229.26912,244.21214 C 232.5506,287.14544 243.59794,307.26653 254.19463,328.7114 C 250.36409,309.17422 256.2242,257.86903 273.64007,226.88803 L 277.35238,220.87762 C 277.82235,217.66689 279.05036,214.60748 281.06469,210.09424 C 260.35638,235.87655 251.09304,275.60938 249.77522,311.03373 C 238.5787,294.48137 230.69339,248.12237 228.73878,216.63498 z " style="opacity:1;color:#000000;fill:#000000;fill-opacity:1;fill-rule:evenodd;stroke:none;stroke-width:0.2;stroke-linecap:butt;stroke-linejoin:miter;marker:none;marker-start:none;marker-mid:none;marker-end:none;stroke-miterlimit:4;stroke-dasharray:none;stroke-dashoffset:0;stroke-opacity:1;visibility:visible;display:inline;overflow:visible;enable-background:accumulate" id="path3166"/>
    <path d="M 277.35238,220.87762 L 273.64007,226.88803 C 273.54322,287.24807 298.56262,366.90384 335.33514,401.01307 C 319.64762,351.90539 320.15428,270.41585 328.97117,250.04577 L 326.4963,244.74247 C 314.97391,267.67445 316.96834,343.94868 329.67828,391.11357 C 297.60755,354.50101 277.86712,279.60456 277.35238,220.87762 z " style="opacity:1;color:#000000;fill:#000000;fill-opacity:1;fill-rule:evenodd;stroke:none;stroke-width:0.2;stroke-linecap:butt;stroke-linejoin:miter;marker:none;marker-start:none;marker-mid:none;marker-end:none;stroke-miterlimit:4;stroke-dasharray:none;stroke-dashoffset:0;stroke-opacity:1;visibility:visible;display:inline;overflow:visible;enable-background:accumulate" id="path3168"/>
    <path d="M 311.47028,218.57952 C 315.95465,228.53794 321.14685,235.66793 326.4963,244.74247 L 328.97117,250.04577 C 331.3617,254.36468 333.41384,259.69874 335.33514,265.42534 C 335.3734,261.16892 337.94877,256.01119 340.28488,251.99031 L 342.58298,249.16189 C 347.60001,241.63624 354.87506,234.67509 361.67486,227.59513 L 363.26585,226.00414 C 369.92319,219.75803 371.95099,214.92613 374.40278,207.26581 C 365.95862,225.61084 341.42445,237.9463 334.98158,259.23816 C 329.79557,244.52679 320.43653,228.82619 311.47028,218.57952 z " style="opacity:1;color:#000000;fill:#000000;fill-opacity:1;fill-rule:evenodd;stroke:none;stroke-width:0.2;stroke-linecap:butt;stroke-linejoin:miter;marker:none;marker-start:none;marker-mid:none;marker-end:none;stroke-miterlimit:4;stroke-dasharray:none;stroke-dashoffset:0;stroke-opacity:1;visibility:visible;display:inline;overflow:visible;enable-background:accumulate" id="path3170"/>
    <path d="M 345.23463,213.80655 C 341.65863,220.58299 338.67908,228.77364 337.45645,235.55008 C 340.31808,228.77364 343.77554,220.58299 345.23463,213.80655 z " style="opacity:1;color:#000000;fill:#000000;fill-opacity:1;fill-rule:evenodd;stroke:none;stroke-width:0.2;stroke-linecap:butt;stroke-linejoin:miter;marker:none;marker-start:none;marker-mid:none;marker-end:none;stroke-miterlimit:4;stroke-dasharray:none;stroke-dashoffset:0;stroke-opacity:1;visibility:visible;display:inline;overflow:visible;enable-background:accumulate" id="path3172"/>
    <path d="M 340.28488,251.99031 C 357.4069,287.95498 351.09739,353.16327 350.89148,393.942 C 364.75072,377.86134 377.25891,350.35004 386.24682,288.22954 L 388.7217,279.74426 C 386.82068,274.5452 385.55354,268.28966 382.35774,265.24857 C 385.24728,296.1202 373.67777,356.90024 353.18958,386.87093 C 356.12551,363.46899 360.14547,281.66142 342.58298,249.16189 L 340.28488,251.99031 z " style="opacity:1;color:#000000;fill:#000000;fill-opacity:1;fill-rule:evenodd;stroke:none;stroke-width:0.2;stroke-linecap:butt;stroke-linejoin:miter;marker:none;marker-start:none;marker-mid:none;marker-end:none;stroke-miterlimit:4;stroke-dasharray:none;stroke-dashoffset:0;stroke-opacity:1;visibility:visible;display:inline;overflow:visible;enable-background:accumulate" id="path3174"/>
    <path d="M 361.67486,227.59513 C 384.04044,255.86053 383.83983,271.30424 386.24682,288.22954 C 398.59417,330.17966 404.30387,397.60266 413.47043,406.66992 C 415.43474,401.54727 439.82119,355.17635 453.77552,326.4133 C 439.5791,345.85422 420.78852,387.10415 413.29366,400.71497 C 405.50679,384.29165 399.50508,319.63687 388.7217,279.74426 C 386.92446,255.66152 374.09488,237.50966 363.26585,226.00414 L 361.67486,227.59513 z " style="opacity:1;color:#000000;fill:#000000;fill-opacity:1;fill-rule:evenodd;stroke:none;stroke-width:0.2;stroke-linecap:butt;stroke-linejoin:miter;marker:none;marker-start:none;marker-mid:none;marker-end:none;stroke-miterlimit:4;stroke-dasharray:none;stroke-dashoffset:0;stroke-opacity:1;visibility:visible;display:inline;overflow:visible;enable-background:accumulate" id="path3176"/>
    <path d="M 445.64379,241.91404 C 461.45047,270.5267 426.4586,353.44929 413.82399,397.47753 C 420.66015,355.52253 453.84181,285.99036 445.64379,241.91404 z " style="opacity:1;color:#000000;fill:#000000;fill-opacity:1;fill-rule:evenodd;stroke:none;stroke-width:0.2;stroke-linecap:butt;stroke-linejoin:miter;marker:none;marker-start:none;marker-mid:none;marker-end:none;stroke-miterlimit:4;stroke-dasharray:none;stroke-dashoffset:0;stroke-opacity:1;visibility:visible;display:inline;overflow:visible;enable-background:accumulate" id="path3178"/>
    <path d="M 252,116.86219 C 232.87476,123.77838 221.84033,146.87618 209,166.36219 C 220.69482,143.8313 231.31262,118.83867 252,116.86219 z " style="opacity:1;color:#000000;fill:#000000;fill-opacity:1;fill-rule:evenodd;stroke:none;stroke-width:0.2;stroke-linecap:butt;stroke-linejoin:miter;marker:none;marker-start:none;marker-mid:none;marker-end:none;stroke-miterlimit:4;stroke-dasharray:none;stroke-dashoffset:0;stroke-opacity:1;visibility:visible;display:inline;overflow:visible;enable-background:accumulate" id="path3180"/>
    <path d="M 154,157.86219 C 142.22002,168.0502 136.20366,180.54366 131,193.36219 C 137.62716,182.04861 144.73205,170.49616 154,157.86219 z " style="opacity:1;color:#000000;fill:#000000;fill-opacity:1;fill-rule:evenodd;stroke:none;stroke-width:0.2;stroke-linecap:butt;stroke-linejoin:miter;marker:none;marker-start:none;marker-mid:none;marker-end:none;stroke-miterlimit:4;stroke-dasharray:none;stroke-dashoffset:0;stroke-opacity:1;visibility:visible;display:inline;overflow:visible;enable-background:accumulate" id="path3182"/>
    <path d="M 61.28033,386.31929 C 55.51869,429.14475 87.27272,476.9125 22.25,545.11218 C 78.14972,524.15729 84.14703,487.8671 98.01256,480.86218 L 97.31066,477.09962 C 84.73247,482.39535 71.24129,523.36975 30.25,538.96573 C 89.33312,475.82927 58.93322,430.00158 64.75,389.86218 L 61.28033,386.31929 z " style="opacity:1;color:#000000;fill:#000000;fill-opacity:1;fill-rule:evenodd;stroke:none;stroke-width:0.2;stroke-linecap:butt;stroke-linejoin:miter;marker:none;marker-start:none;marker-mid:none;marker-end:none;stroke-miterlimit:4;stroke-dasharray:none;stroke-dashoffset:0;stroke-opacity:1;visibility:visible;display:inline;overflow:visible;enable-background:accumulate" id="path3184"/>
    <path d="M 377.75,514.11218 C 378.65701,575.40077 400.30664,603.91602 434.5,612.61218 C 476.77944,617.29631 500.20925,585.41423 499.25,552.86218 C 479.8395,569.06381 471.43276,583.95335 450.75,561.11218 C 434.34817,543.75103 421.99316,518.8021 421.5,471.61218 C 407.53687,486.39905 393.04515,500.65733 377.75,514.11218 z " style="opacity:1;color:#000000;fill:#d5d5d5;fill-opacity:1;fill-rule:evenodd;stroke:none;stroke-width:0.40000001;stroke-linecap:butt;stroke-linejoin:miter;marker:none;marker-start:none;marker-mid:none;marker-end:none;stroke-miterlimit:4;stroke-dasharray:none;stroke-dashoffset:0;stroke-opacity:1;visibility:visible;display:inline;overflow:visible;enable-background:accumulate" id="path3236"/>
    <path d="M 243.75,586.36218 C 250.19488,594.03423 254.37826,602.61088 257.5,611.61218 C 296.37724,596.16325 334.27949,590.22046 378.25,525.11218 L 377.75,514.11218 C 329.59017,559.23136 297.15588,571.1527 243.75,586.36218 z " style="opacity:1;color:#000000;fill:#d5d5d5;fill-opacity:1;fill-rule:evenodd;stroke:none;stroke-width:0.40000001;stroke-linecap:butt;stroke-linejoin:miter;marker:none;marker-start:none;marker-mid:none;marker-end:none;stroke-miterlimit:4;stroke-dasharray:none;stroke-dashoffset:0;stroke-opacity:1;visibility:visible;display:inline;overflow:visible;enable-background:accumulate" id="path3228"/>
    <path d="M 422,470.86218 C 421.95458,494.8142 424.15598,518.39174 436,540.36218 C 480.45956,558.7117 520.06121,515.03481 521,497.86218 C 505.85372,508.31878 482.97471,528.49056 468.5,490.86218 C 463.69299,466.01728 465.89752,436.61853 475,401.11218 C 468.22233,416.13985 461.862,430.75018 455.75,445.11218 C 451.84511,459.68799 444.03052,462.17196 422,470.86218 z " style="opacity:1;color:#000000;fill:#d5d5d5;fill-opacity:1;fill-rule:evenodd;stroke:none;stroke-width:0.40000001;stroke-linecap:butt;stroke-linejoin:miter;marker:none;marker-start:none;marker-mid:none;marker-end:none;stroke-miterlimit:4;stroke-dasharray:none;stroke-dashoffset:0;stroke-opacity:1;visibility:visible;display:inline;overflow:visible;enable-background:accumulate" id="path3238"/>
    <path d="M 185.07107,457.36218 C 195.82802,457.86779 206.55591,469.71935 214.75782,473.95598 L 196.21188,471.72374 C 190.10849,468.43017 187.47206,462.96975 185.07107,457.36218 z " style="opacity:1;color:#000000;fill:url(#linearGradient3217);fill-opacity:1;fill-rule:evenodd;stroke:none;stroke-width:0.40000001;stroke-linecap:butt;stroke-linejoin:miter;marker:none;marker-start:none;marker-mid:none;marker-end:none;stroke-miterlimit:4;stroke-dasharray:none;stroke-dashoffset:0;stroke-opacity:1;visibility:visible;display:inline;overflow:visible;enable-background:accumulate" id="path3209"/>
    <path d="M 198.57843,425.92347 C 194.64097,440.623 179.85912,452.85799 179.875,456.23718 C 183.64995,461.82589 188.63889,465.13996 193.125,469.48718 C 189.32786,465.81634 185.90802,462.01974 185.07107,457.36218 C 188.04956,449.76925 197.594,444.90756 198.57843,425.92347 z " style="opacity:0.5;color:#000000;fill:#d5d5d5;fill-opacity:1;fill-rule:evenodd;stroke:none;stroke-width:0.40000001;stroke-linecap:butt;stroke-linejoin:miter;marker:none;marker-start:none;marker-mid:none;marker-end:none;stroke-miterlimit:4;stroke-dasharray:none;stroke-dashoffset:0;stroke-opacity:1;visibility:visible;display:inline;overflow:visible;enable-background:accumulate" id="path3206"/>
    <path d="M 71.58431,399.2453 C 90.90244,423.9186 93.95691,457.25376 97.31066,477.09962 L 98.01256,480.86218 C 99.77864,495.0143 106.20318,516.07116 130.8045,534.30269 C 140.31035,541.34728 156.11086,556.31468 174.67096,570.46998 C 196.77996,587.33194 215.32578,599.42996 257.81981,584.27208 C 329.12844,558.83586 343.01071,554.61112 423.72134,471.46902 L 422.80648,468.23901 C 340.57304,553.12836 314.20522,562.25093 257.78749,580.85894 C 234.03883,588.69186 213.56383,592.34732 191.0437,578.05335 C 164.57762,561.25481 154.30325,547.87727 132.39549,531.12072 C 86.23896,495.81706 109.23745,445.09713 81.13025,407.20025 L 71.58431,399.2453 z " style="opacity:1;color:#000000;fill:#000000;fill-opacity:1;fill-rule:evenodd;stroke:none;stroke-width:0.2;stroke-linecap:butt;stroke-linejoin:miter;marker:none;marker-start:none;marker-mid:none;marker-end:none;stroke-miterlimit:4;stroke-dasharray:none;stroke-dashoffset:0;stroke-opacity:1;visibility:visible;display:inline;overflow:visible;enable-background:accumulate" id="path3186"/>
    <path d="M 111,512.61218 C 129.31361,545.33993 95.70246,601.22136 60.75,642.86218 C 102.09469,618.89501 145.95462,589.32349 151.75,549.86218 L 148,546.36218 C 146.58103,583.14734 95.18732,620.91689 70.75,633.86218 C 107.02615,588.96554 127.20827,544.67427 117.5,518.61218 L 111,512.61218 z " style="opacity:1;color:#000000;fill:#000000;fill-opacity:1;fill-rule:evenodd;stroke:none;stroke-width:0.2;stroke-linecap:butt;stroke-linejoin:miter;marker:none;marker-start:none;marker-mid:none;marker-end:none;stroke-miterlimit:4;stroke-dasharray:none;stroke-dashoffset:0;stroke-opacity:1;visibility:visible;display:inline;overflow:visible;enable-background:accumulate" id="path3188"/>
    <path d="M 138.75,539.61218 C 140.00141,559.5487 128.10559,577.20925 115.25,594.61218 C 129.5319,578.2666 142.03368,561.49718 142.5,541.86218 L 138.75,539.61218 z " style="opacity:1;color:#000000;fill:#000000;fill-opacity:1;fill-rule:evenodd;stroke:none;stroke-width:0.2;stroke-linecap:butt;stroke-linejoin:miter;marker:none;marker-start:none;marker-mid:none;marker-end:none;stroke-miterlimit:4;stroke-dasharray:none;stroke-dashoffset:0;stroke-opacity:1;visibility:visible;display:inline;overflow:visible;enable-background:accumulate" id="path3190"/>
    <path d="M 441.75,381.86218 C 450.33105,375.75906 464.59521,368.47989 482,365.11218 C 478.47166,368.43134 473.18866,370.87318 467,372.86218 C 471.23079,382.72228 457.6715,402.80769 451.25,413.11218 C 457.00113,400.11186 466.53348,381.24547 463.25,374.11218 C 456.28218,375.96177 445.07982,384.6063 441.75,381.86218 z " style="opacity:1;color:#000000;fill:#000000;fill-opacity:1;fill-rule:evenodd;stroke:none;stroke-width:0.2;stroke-linecap:butt;stroke-linejoin:miter;marker:none;marker-start:none;marker-mid:none;marker-end:none;stroke-miterlimit:4;stroke-dasharray:none;stroke-dashoffset:0;stroke-opacity:1;visibility:visible;display:inline;overflow:visible;enable-background:accumulate" id="path3192"/>
    <path d="M 449.25,346.86218 C 463.8996,342.6806 469.32982,329.95255 485.8855,341.57919 L 488.35204,344.27651 C 502.28622,360.41143 495.5212,367.27137 482.25,391.61218 C 472.73997,409.05459 465.51362,426.23634 458.25,443.86218 C 451.20488,460.95781 450.73892,461.86278 423.72134,471.46902 L 422.80648,468.23901 C 453.53088,457.53429 447.6485,458.37804 457,436.86218 C 464.75602,419.01719 472.28491,402.00205 482.25,384.36218 C 490.86303,369.11568 497.7725,360.47078 485.5,346.86218 C 472.59852,332.55612 464.80757,344.59401 449.25,346.86218 z " style="opacity:1;color:#000000;fill:#000000;fill-opacity:1;fill-rule:evenodd;stroke:none;stroke-width:0.2;stroke-linecap:butt;stroke-linejoin:miter;marker:none;marker-start:none;marker-mid:none;marker-end:none;stroke-miterlimit:4;stroke-dasharray:none;stroke-dashoffset:0;stroke-opacity:1;visibility:visible;display:inline;overflow:visible;enable-background:accumulate" id="path3194"/>
    <path d="M 477.4636,398.18464 C 453.51954,489.18731 473.27197,538.93305 522.71843,494.70472 C 519.4281,525.29967 472.01248,560.4316 436.09785,541.37376 L 434.33008,536.42402 C 470.17026,558.91723 513.23913,523.73395 520.24355,499.12414 C 503.24191,513.12153 490.38865,516.41443 481.22501,512.44636 C 480.28226,512.03813 484.00356,518.30305 486.20091,519.74487 C 479.64093,518.0965 477.00231,510.56714 475.66731,508.83137 C 461.29682,490.1238 460.3848,460.8478 471.09964,411.26612 L 477.4636,398.18464 z " style="opacity:1;color:#000000;fill:#000000;fill-opacity:1;fill-rule:evenodd;stroke:none;stroke-width:0.2;stroke-linecap:butt;stroke-linejoin:miter;marker:none;marker-start:none;marker-mid:none;marker-end:none;stroke-miterlimit:4;stroke-dasharray:none;stroke-dashoffset:0;stroke-opacity:1;visibility:visible;display:inline;overflow:visible;enable-background:accumulate" id="path3196"/>
    <path d="M 435.25,466.36218 C 435.21092,479.77885 436.30652,493.19551 440.25,506.61218 C 434.58511,495.2569 433.12573,481.27318 432.75,466.61218 L 435.25,466.36218 z " style="opacity:1;color:#000000;fill:#000000;fill-opacity:1;fill-rule:evenodd;stroke:none;stroke-width:0.2;stroke-linecap:butt;stroke-linejoin:miter;marker:none;marker-start:none;marker-mid:none;marker-end:none;stroke-miterlimit:4;stroke-dasharray:none;stroke-dashoffset:0;stroke-opacity:1;visibility:visible;display:inline;overflow:visible;enable-background:accumulate" id="path3198"/>
    <path d="M 424,470.61218 C 422.77984,515.40738 434.33751,538.82561 448.9878,556.45011 C 467.70061,578.96187 473.57794,574.66979 501,549.36218 C 500.82592,639.22466 375.00147,644.97024 376,516.36218 L 380.25,511.86218 C 377.62808,643.12578 494.71226,630.01197 498,555.36218 C 472.54072,582.20842 463.85601,579.35038 446.18747,557.97364 C 432.48192,541.39163 419.03647,515.41435 420.25,472.86218 L 424,470.61218 z " style="opacity:1;color:#000000;fill:#000000;fill-opacity:1;fill-rule:evenodd;stroke:none;stroke-width:0.2;stroke-linecap:butt;stroke-linejoin:miter;marker:none;marker-start:none;marker-mid:none;marker-end:none;stroke-miterlimit:4;stroke-dasharray:none;stroke-dashoffset:0;stroke-opacity:1;visibility:visible;display:inline;overflow:visible;enable-background:accumulate" id="path3200"/>
    <path d="M 410,483.11218 C 408.45298,507.93676 412.58946,550.73289 434.5,570.11218 C 412.18687,554.42122 406.10198,518.05262 407.5,485.36218 L 410,483.11218 z " style="opacity:1;color:#000000;fill:#000000;fill-opacity:1;fill-rule:evenodd;stroke:none;stroke-width:0.2;stroke-linecap:butt;stroke-linejoin:miter;marker:none;marker-start:none;marker-mid:none;marker-end:none;stroke-miterlimit:4;stroke-dasharray:none;stroke-dashoffset:0;stroke-opacity:1;visibility:visible;display:inline;overflow:visible;enable-background:accumulate" id="path3202"/>
    <path d="M 241.28994,588.21959 C 257.04925,609.96929 262.51017,627.39282 264.27091,645.67201 C 263.82756,630.00729 264.60372,613.72464 246.59324,586.45182 L 241.28994,588.21959 z " style="opacity:1;color:#000000;fill:#000000;fill-opacity:1;fill-rule:evenodd;stroke:none;stroke-width:0.2;stroke-linecap:butt;stroke-linejoin:miter;marker:none;marker-start:none;marker-mid:none;marker-end:none;stroke-miterlimit:4;stroke-dasharray:none;stroke-dashoffset:0;stroke-opacity:1;visibility:visible;display:inline;overflow:visible;enable-background:accumulate" id="path3177"/>
    <path d="M 156.25,269.36218 C 154.08753,296.73078 156.11122,324.63005 165.25,341.36218 C 158.63037,319.95761 156.97435,292.73184 156.25,269.36218 z " style="opacity:1;color:#000000;fill:#000000;fill-opacity:1;fill-rule:evenodd;stroke:none;stroke-width:0.2;stroke-linecap:butt;stroke-linejoin:miter;marker:none;marker-start:none;marker-mid:none;marker-end:none;stroke-miterlimit:4;stroke-dasharray:none;stroke-dashoffset:0;stroke-opacity:1;visibility:visible;display:inline;overflow:visible;enable-background:accumulate" id="path3179"/>
    <path d="M 64.75,329.11218 C 69.54663,349.61218 74.11841,370.11218 78.25,390.61218 C 70.92022,371.24409 65.44375,351.13468 64.75,329.11218 z " style="opacity:1;color:#000000;fill:#000000;fill-opacity:1;fill-rule:evenodd;stroke:none;stroke-width:0.2;stroke-linecap:butt;stroke-linejoin:miter;marker:none;marker-start:none;marker-mid:none;marker-end:none;stroke-miterlimit:4;stroke-dasharray:none;stroke-dashoffset:0;stroke-opacity:1;visibility:visible;display:inline;overflow:visible;enable-background:accumulate" id="path3181"/>
    <path d="M 121.5,380.7283 C 121.5,380.7283 119.8125,396.04968 121.5,406.61218 C 123.1875,417.17468 128.25,423.86218 128.25,423.86218 C 128.25,423.86218 121.3125,418.04968 118.5,408.11218 C 115.6875,398.17468 117,383.2283 117,383.2283 L 121.5,380.7283 z " style="opacity:1;color:#000000;fill:#000000;fill-opacity:1;fill-rule:evenodd;stroke:none;stroke-width:0.2;stroke-linecap:butt;stroke-linejoin:miter;marker:none;marker-start:none;marker-mid:none;marker-end:none;stroke-miterlimit:4;stroke-dasharray:none;stroke-dashoffset:0;stroke-opacity:1;visibility:visible;display:inline;overflow:visible;enable-background:accumulate" id="path3183"/>
    <path d="M 296.8836,381.05139 C 290.87366,400.32552 292.04154,415.66462 300.15657,422.22627 C 292.52235,408.84474 295.64485,394.25871 301.12624,380.52106 L 296.8836,381.05139 z " style="opacity:1;color:#000000;fill:#000000;fill-opacity:1;fill-rule:evenodd;stroke:none;stroke-width:0.2;stroke-linecap:butt;stroke-linejoin:miter;marker:none;marker-start:none;marker-mid:none;marker-end:none;stroke-miterlimit:4;stroke-dasharray:none;stroke-dashoffset:0;stroke-opacity:1;visibility:visible;display:inline;overflow:visible;enable-background:accumulate" id="path3185"/>
    <path d="M 78.75,409.48718 C 75.96696,421.57519 77.65727,441.49157 77.25,457.73718 C 78.48266,442.64696 78.22666,423.38849 81,412.61218 L 78.75,409.48718 z " style="opacity:1;color:#000000;fill:#000000;fill-opacity:1;fill-rule:evenodd;stroke:none;stroke-width:0.2;stroke-linecap:butt;stroke-linejoin:miter;marker:none;marker-start:none;marker-mid:none;marker-end:none;stroke-miterlimit:4;stroke-dasharray:none;stroke-dashoffset:0;stroke-opacity:1;visibility:visible;display:inline;overflow:visible;enable-background:accumulate" id="path3187"/>
    <path d="M 163.09619,420.41243 C 151.10779,429.78584 138.05364,428.55029 126.97119,423.78743 C 125.45186,425.99576 124.14314,428.2041 121.34619,430.41243 C 124.15931,430.1681 125.14169,427.14447 131.22119,428.41243 C 131.30631,429.95454 128.73945,431.05241 127.59619,432.28743 C 131.37855,431.67135 133.23071,428.86362 139.97119,428.66243 C 140.28704,430.07327 138.89409,431.33117 138.22119,432.41243 C 140.83576,432.3994 143.17182,430.81946 144.47119,429.16243 C 154.77342,429.5923 159.08018,425.37159 163.09619,420.41243 z " style="opacity:1;color:#000000;fill:#000000;fill-opacity:1;fill-rule:evenodd;stroke:none;stroke-width:0.2;stroke-linecap:butt;stroke-linejoin:miter;marker:none;marker-start:none;marker-mid:none;marker-end:none;stroke-miterlimit:4;stroke-dasharray:none;stroke-dashoffset:0;stroke-opacity:1;visibility:visible;display:inline;overflow:visible;enable-background:accumulate" id="path3189"/>
    <path d="M 324.375,426.73718 C 333.48634,423.39809 340.45238,419.20231 349.625,414.23718 C 351.44465,413.29084 352.98554,416.39183 351.64515,416.66894 C 347.30638,417.524 344.15424,419.24523 339.5,421.36218 C 340.34745,422.09823 341.6961,422.70899 343.875,423.11218 L 341.75,423.86218 C 342.40302,424.65385 343.26413,425.44551 344.25,426.23718 C 341.64929,426.41075 338.93331,426.35381 336,425.86218 C 336.86927,427.02885 338.7884,428.19551 340.625,429.36218 C 337.18431,429.01333 333.71728,428.70838 331.25,426.73718 C 328.77117,427.79799 326.4195,427.97302 324.375,426.73718 z " style="opacity:1;color:#000000;fill:#000000;fill-opacity:1;fill-rule:evenodd;stroke:none;stroke-width:0.2;stroke-linecap:butt;stroke-linejoin:miter;marker:none;marker-start:none;marker-mid:none;marker-end:none;stroke-miterlimit:4;stroke-dasharray:none;stroke-dashoffset:0;stroke-opacity:1;visibility:visible;display:inline;overflow:visible;enable-background:accumulate" id="path3195"/>
    <path d="M 286.45638,424.17082 C 285.31313,426.66621 295.58062,431.55825 296.35588,430.35799 C 297.53862,427.93676 288.14952,422.42268 286.45638,424.17082 z " style="opacity:1;color:#000000;fill:#000000;fill-opacity:1;fill-rule:evenodd;stroke:none;stroke-width:0.2;stroke-linecap:butt;stroke-linejoin:miter;marker:none;marker-start:none;marker-mid:none;marker-end:none;stroke-miterlimit:4;stroke-dasharray:none;stroke-dashoffset:0;stroke-opacity:1;visibility:visible;display:inline;overflow:visible;enable-background:accumulate" id="path3197"/>
    <path d="M 297.59331,425.40825 C 296.79745,429.05991 299.83186,431.83502 302.71984,434.33547 C 303.88042,432.87685 304.34055,430.83453 306.7857,430.44639 C 309.00911,432.71708 311.72435,434.0041 314.65226,434.8658 C 313.93383,433.66915 313.04033,432.64757 312.53094,431.24188 C 314.84556,434.21511 317.72575,434.07774 320.48589,434.60064 C 318.88343,433.11198 316.88931,432.60248 316.15487,428.94378 C 318.69135,430.27419 323.40736,433.06194 328.88279,432.47932 C 325.70081,431.28183 322.51883,430.53361 319.33685,427.08763 C 310.43595,428.60016 303.37527,427.92614 297.59331,425.40825 z " style="opacity:1;color:#000000;fill:#000000;fill-opacity:1;fill-rule:evenodd;stroke:none;stroke-width:0.2;stroke-linecap:butt;stroke-linejoin:miter;marker:none;marker-start:none;marker-mid:none;marker-end:none;stroke-miterlimit:4;stroke-dasharray:none;stroke-dashoffset:0;stroke-opacity:1;visibility:visible;display:inline;overflow:visible;enable-background:accumulate" id="path3199"/>
    <path d="M 226.875,502.86218 C 221.80603,498.66796 214.97474,500.37414 209.125,500.23718 C 196.52962,499.94228 188.70422,500.89773 192.125,506.61218 C 195.87524,512.87699 193.94692,503.68823 197.875,503.23718 C 204.63216,502.46127 216.622,501.812 222.875,504.36218 C 226.98466,506.03823 219.93105,511.81941 215.125,515.11218 C 218.78228,515.19797 222.15973,513.38898 224.75,511.36218 C 226.92525,509.66011 230.66994,506.00222 226.875,502.86218 z " style="opacity:1;color:#000000;fill:#000000;fill-opacity:1;fill-rule:evenodd;stroke:none;stroke-width:0.2;stroke-linecap:butt;stroke-linejoin:miter;marker:none;marker-start:none;marker-mid:none;marker-end:none;stroke-miterlimit:4;stroke-dasharray:none;stroke-dashoffset:0;stroke-opacity:1;visibility:visible;display:inline;overflow:visible;enable-background:accumulate" id="path3208"/>
    <path d="M 211.25,514.36218 C 211.20633,512.9356 206.73668,513.24513 203.375,512.48718 C 200.84331,511.91637 197.2689,508.71956 196.125,509.73718 C 195.21244,511.28899 199.62544,513.65812 201.875,514.36218 C 204.72002,515.2526 211.10821,516.42873 211.25,514.36218 z " style="opacity:1;color:#000000;fill:#000000;fill-opacity:1;fill-rule:evenodd;stroke:none;stroke-width:0.2;stroke-linecap:butt;stroke-linejoin:miter;marker:none;marker-start:none;marker-mid:none;marker-end:none;stroke-miterlimit:4;stroke-dasharray:none;stroke-dashoffset:0;stroke-opacity:1;visibility:visible;display:inline;overflow:visible;enable-background:accumulate" id="path3210"/>
    <path d="M 200.98485,526.11919 C 201.45683,524.59737 206.7595,526.29597 209.64691,526.29597 C 212.82883,526.29597 219.13369,524.62435 219.19285,525.99419 C 219.36998,527.97635 214.03963,529.32757 209.47013,529.35295 C 204.45605,529.3808 200.51278,528.29843 200.98485,526.11919 z " style="opacity:1;color:#000000;fill:#d5d5d5;fill-opacity:1;fill-rule:evenodd;stroke:none;stroke-width:0.2;stroke-linecap:butt;stroke-linejoin:miter;marker:none;marker-start:none;marker-mid:none;marker-end:none;stroke-miterlimit:4;stroke-dasharray:none;stroke-dashoffset:0;stroke-opacity:1;visibility:visible;display:inline;overflow:visible;enable-background:accumulate" id="path3216"/>
    <path d="M 198.83088,425.11954 C 194.06071,445.25298 186.56237,449.21894 185.07107,457.36218 C 184.56072,459.72981 187.75074,467.45409 197.31399,472.36218 C 190.49168,467.41692 185.82683,460.02596 185.84505,458.08648 C 186.08686,451.7018 199.29496,443.98111 198.83088,425.11954 z " style="opacity:1;color:#000000;fill:#000000;fill-opacity:1;fill-rule:evenodd;stroke:none;stroke-width:0.40000001;stroke-linecap:butt;stroke-linejoin:miter;marker:none;marker-start:none;marker-mid:none;marker-end:none;stroke-miterlimit:4;stroke-dasharray:none;stroke-dashoffset:0;stroke-opacity:1;visibility:visible;display:inline;overflow:visible;enable-background:accumulate" id="path3204"/>
  </g>
</svg>