<?xml version="1.0" encoding="UTF-8" standalone="no"?>
<!-- Created with Inkscape (http://www.inkscape.org/) -->

<svg
   xmlns:dc="http://purl.org/dc/elements/1.1/"
   xmlns:cc="http://creativecommons.org/ns#"
   xmlns:rdf="http://www.w3.org/1999/02/22-rdf-syntax-ns#"
   xmlns:svg="http://www.w3.org/2000/svg"
   xmlns="http://www.w3.org/2000/svg"
   xmlns:xlink="http://www.w3.org/1999/xlink"
   xmlns:sodipodi="http://sodipodi.sourceforge.net/DTD/sodipodi-0.dtd"
   xmlns:inkscape="http://www.inkscape.org/namespaces/inkscape"
   version="1.0"
   width="540"
   height="660"
   id="svg2"
   inkscape:version="0.48.4 r9939"
   sodipodi:docname="Manga_bw.svg">
  <sodipodi:namedview
     pagecolor="#ffffff"
     bordercolor="#666666"
     borderopacity="1"
     objecttolerance="10"
     gridtolerance="10"
     guidetolerance="10"
     inkscape:pageopacity="0"
     inkscape:pageshadow="2"
     inkscape:window-width="1855"
     inkscape:window-height="1056"
     id="namedview75"
     showgrid="false"
     inkscape:zoom="2"
     inkscape:cx="270"
     inkscape:cy="270"
     inkscape:window-x="65"
     inkscape:window-y="24"
     inkscape:window-maximized="1"
     inkscape:current-layer="svg2" />
  <metadata
     id="metadata77">
    <rdf:RDF>
      <cc:Work
         rdf:about="">
        <dc:format>image/svg+xml</dc:format>
        <dc:type
           rdf:resource="http://purl.org/dc/dcmitype/StillImage" />
        <dc:title></dc:title>
      </cc:Work>
    </rdf:RDF>
  </metadata>
  <defs
     id="defs4">
    <linearGradient
       id="linearGradient3211">
      <stop
         id="stop3213"
         offset="0"
         style="stop-color:#d5d5d5;stop-opacity:1" />
      <stop
         id="stop3215"
         offset="1"
         style="stop-color:#d5d5d5;stop-opacity:0" />
    </linearGradient>
    <linearGradient
       gradientTransform="translate(-96,-144)"
       gradientUnits="userSpaceOnUse"
       xlink:href="#linearGradient3211"
       id="linearGradient3217"
       y2="623.22375"
       x2="306.86871"
       y1="603.06287"
       x1="283.01562" />
  </defs>
  <path
     d="M306.11363 76.725381L290.077278457 71.1056563125L272.873838906 63.452496L254.505141465 55.5854356875L234.97301625 49.324011L214.279293379 46.4877575625L203.497404734 46.9226749453L192.425802969 48.896211L181.064716848 52.6358076797L169.414375137 58.3689069375L157.475006599 66.3229507266L145.24684 76.725381L170.469084688 68.421692875L196.0701375 64.6131485L209.101499961 64.7442520938L222.334104062 66.418777875L235.803463008 69.7766045937L249.54509 74.957611L257.87884 79.503301L250.350143691 73.5848338906L241.032018281 68.5590885L230.190074043 64.6132474844L218.08992125 61.9344935L204.997170176 60.7100092031L191.177431094 61.12697725L176.896314277 63.3725802969L162.41943 67.634001L181.928378066 56.2825292812L200.595853906 50.827192875L218.60803998 50.1805724063L236.15111875 53.2552485L253.411272676 58.9638017812L270.574684219 66.218812875L305.35601 81.018531L306.11363 76.725381L306.11363 76.725381"
     style="fill:#000000;fill-opacity:1;fill-rule:evenodd;stroke:none"
     id="path3191"
     inkscape:connector-curvature="0" />
  <path
     d="M305.35601 81.018531L310.595350156 72.8479155313L315.91403375 58.98212725L319.449237969 42.3477908438L319.33814 25.871531L321.808454531 31.7500024063L323.18859625 41.23432475L324.12894 63.606131L326.27179 61.998981L325.683599844 44.4733708438L323.76777375 29.98114225L321.605028184 24.4445695742L318.262010781 20.3527705313L313.455933926 17.9345545352L306.90401 17.418731L312.942720605 20.0225923672L316.138961094 25.8675063125L317.035680723 34.0196251016L316.17582875 43.545101L311.358207031 62.9807331875L306.02969 76.703621L305.35601 81.018531L305.35601 81.018531"
     style="fill:#000000;fill-opacity:1;fill-rule:evenodd;stroke:none"
     id="path3193"
     inkscape:connector-curvature="0" />
  <path
     d="M324.12894 63.606131L326.27179 61.998981L331.424397227 61.2291639492L337.792345937 62.2506214687L352.66267 67.86520725L380.35984 80.765991L397.795502188 89.2600854219L418.5746625 102.379805125L452.08067 125.71778L497.16465 153.42756L475.20036 154.14184L471.62894 150.92756L486.62893 151.46327L454.997246875 132.175424078L424.7449525 111.386447625L398.559649375 93.5823101094L379.12894 83.248981L348.82126875 69.5252235L334.522764531 64.7580619375L328.68146127 64.5636876797L324.12893 66.463271L318.25509125 72.28087725L312.87893 80.391841L313.614164062 75.0607656875L316.35091 70.512111L324.12894 63.606131L324.12894 63.606131"
     style="color:#000000;fill:#000000;fill-opacity:1;fill-rule:evenodd;stroke:none;stroke-width:0.2;marker:none;visibility:visible;display:inline;overflow:visible;enable-background:accumulate"
     id="path3132"
     inkscape:connector-curvature="0" />
  <path
     d="M418.09322 112.01684L422.529449062 117.148789375L431.44339 123.11142L443.025995937 131.620510625L455.46822 144.39184L466.36939125 161.4103375L477.21822 181.14184L470.46654875 165.51717125L462.46822 150.14184L459.59322 145.51684L450.904397656 135.780638281L441.39131875 127.43248875L418.09322 112.01684L418.09322 112.01684"
     style="color:#000000;fill:#000000;fill-opacity:1;fill-rule:evenodd;stroke:none;stroke-width:0.2;marker:none;visibility:visible;display:inline;overflow:visible;enable-background:accumulate"
     id="path3134"
     inkscape:connector-curvature="0" />
  <path
     d="M419.59322 131.76684L431.192675781 140.977752187L441.66386625 155.390445L450.412233594 174.303835312L456.84322 197.01684L442.191719375 162.524781562L430.90059 144.722925L423.268275625 136.755525938L419.59322 131.76684L419.59322 131.76684"
     style="color:#000000;fill:#000000;fill-opacity:1;fill-rule:evenodd;stroke:none;stroke-width:0.2;marker:none;visibility:visible;display:inline;overflow:visible;enable-background:accumulate"
     id="path3136"
     inkscape:connector-curvature="0" />
  <path
     d="M459.59322 145.51684L471.62894 150.92756L470.65572 152.70434L462.46822 150.14184L459.59322 145.51684L459.59322 145.51684"
     style="color:#000000;fill:#000000;fill-opacity:1;fill-rule:evenodd;stroke:none;stroke-width:0.2;marker:none;visibility:visible;display:inline;overflow:visible;enable-background:accumulate"
     id="path3138"
     inkscape:connector-curvature="0" />
  <path
     d="M470.65572 152.70434L484.379671562 171.703285312L496.27238 184.06849L506.343203437 195.919929687L514.6015 213.37758L519.953754687 235.7496725L521.2685325 256.287715L519.562674063 275.25375L515.85302 292.90982L510.409864375 310.877133437L504.0173925 325.810695L496.574159375 337.906076563L487.97872 347.35885L490.44526 350.05617L500.920781562 339.060532656L508.9918875 325.90657625L515.150122187 310.823081719L519.88703 294.03883L524.10924125 273.019298906L525.7761425 253.09055375L524.1386525 232.945664219L518.44769 211.2777L510.319504688 193.28487625L501.4471675 182.29373L490.263259062 171.51060375L475.20036 154.14184L471.62894 150.92756L470.65572 152.70434L470.65572 152.70434"
     style="color:#000000;fill:#000000;fill-opacity:1;fill-rule:evenodd;stroke:none;stroke-width:0.2;marker:none;visibility:visible;display:inline;overflow:visible;enable-background:accumulate"
     id="path3140"
     inkscape:connector-curvature="0" />
  <path
     d="M484.71822 203.89184L487.958717656 218.533340937L489.64715875 232.9531175L489.34322 261.26684L491.990682656 245.902582812L492.15527125 231.2044625L489.757584219 217.193780938L484.71822 203.89184L484.71822 203.89184"
     style="color:#000000;fill:#000000;fill-opacity:1;fill-rule:evenodd;stroke:none;stroke-width:0.2;marker:none;visibility:visible;display:inline;overflow:visible;enable-background:accumulate"
     id="path3142"
     inkscape:connector-curvature="0" />
  <path
     d="M482.84322 341.51684L484.815852656 337.087114375L491.30173125 328.157145L512.09322 298.89184L496.41513 325.5058875L488.843638125 336.388345937L482.84322 341.51684L482.84322 341.51684"
     style="color:#000000;fill:#000000;fill-opacity:1;fill-rule:evenodd;stroke:none;stroke-width:0.2;marker:none;visibility:visible;display:inline;overflow:visible;enable-background:accumulate"
     id="path3144"
     inkscape:connector-curvature="0" />
  <path
     d="M257.87884 79.503301L249.54509 74.957611L210.636816562 77.0348975625L176.3401075 84.07309925L144.439172187 96.2871165625L112.71822 113.89185L152.09322 109.14185L154.34322 106.64185L123.71822 110.01685L153.133439688 96.0483278125L184.26642 85.81143925L218.665455313 80.0488688125L257.87884 79.503301L257.87884 79.503301"
     style="color:#000000;fill:#000000;fill-opacity:1;fill-rule:evenodd;stroke:none;stroke-width:0.2;marker:none;visibility:visible;display:inline;overflow:visible;enable-background:accumulate"
     id="path3146"
     inkscape:connector-curvature="0" />
  <path
     d="M154.34322 106.64185L172.31892 106.97945L159.78133375 111.073646406L149.6382275 115.72397625L129.69664 126.83431L122.011926875 131.958526719L114.99345 138.59155875L101.07791 156.47693L74.7033080977 182.927319395L52.7966424062 211.456219531L35.8695516992 241.25838459L24.43367475 271.52856875L20.9348285513 286.587528674L19.000650332 301.461526191L18.695094939 316.049905574L20.0821172187 330.252011094L23.2256720181 343.967187024L28.1897141836 357.094777637L35.038198562 369.534127205L43.83508 381.18458L42.5645582813 363.216903281L42.34662875 343.01885125L45.9611823438 320.711576094L50.0743562305 308.804839902L56.18811 296.41623L48.94187625 318.6167L47.1540998438 329.60382L47.61303 341.2228L46.1012 349.12244L45.54917875 369.17757375L46.77207 387.7327L35.3486631958 374.204688772L26.6571683789 359.962136738L20.5295358179 345.12729825L16.7977157813 329.822427656L15.2936585376 314.169779309L15.8493143555 298.291607559L18.2966335034 282.310166755L22.46756625 266.34771125L35.3080736133 234.968773535L53.0264385937 205.132829219L74.2782633398 177.817913105L97.71915 154.00206L111.010536094 137.389984062L121.86878625 128.4854725L134.245735781 121.124202188L152.09322 109.14185L154.34322 106.64185L154.34322 106.64185"
     style="color:#000000;fill:#000000;fill-opacity:1;fill-rule:evenodd;stroke:none;stroke-width:0.2;marker:none;visibility:visible;display:inline;overflow:visible;enable-background:accumulate"
     id="path3148"
     inkscape:connector-curvature="0" />
  <path
     d="M47.61303 341.2228L53.0583464062 364.917521406L62.01388125 385.03622125L75.2640379687 402.290470469L93.59322 417.39184L85.8436290625 391.450452656L83.0737475391 376.736736777L81.8678 360.74113625L82.8462799609 343.373748691L86.6296809375 324.544671719L93.8384964453 304.164002949L105.09322 282.14184L99.59322 295.89184L97.59322 300.39184L91.1803102148 316.859883438L87.2384942188 333.38581L85.4595158008 349.784529062L85.53511875 365.87095L90.0170439062 396.366535L98.21822 423.39184L80.5281617187 411.655692969L65.33970125 396.26031375L58.9674472461 386.77092623L53.5612451563 375.863347656L49.2346458008 363.369783691L46.1012 349.12244L47.61303 341.2228L47.61303 341.2228"
     style="color:#000000;fill:#000000;fill-opacity:1;fill-rule:evenodd;stroke:none;stroke-width:0.2;marker:none;visibility:visible;display:inline;overflow:visible;enable-background:accumulate"
     id="path3150"
     inkscape:connector-curvature="0" />
  <path
     d="M99.59322 295.89184L100.367192813 321.143525937L103.43067 344.76999L108.887922188 366.894879062L116.84322 387.64184L116.999383477 364.514952168L120.115403437 341.635297969L125.59306043 319.575958848L132.834135 298.91001625L141.240407695 280.210551621L150.213659062 264.050646406L159.155669648 251.003382051L167.46822 241.64184L150.34322 268.14184L148.59322 272.39184L136.276183125 300.366816562L126.377015 330.287565L120.210949375 362.010450937L119.09322 395.39184L111.398709531 382.113962031L103.90767875 359.31277625L98.6344185937 330.801122344L97.59322 300.39184L99.59322 295.89184L99.59322 295.89184"
     style="color:#000000;fill:#000000;fill-opacity:1;fill-rule:evenodd;stroke:none;stroke-width:0.2;marker:none;visibility:visible;display:inline;overflow:visible;enable-background:accumulate"
     id="path3152"
     inkscape:connector-curvature="0" />
  <path
     d="M161.18199 356.58815L152.128367012 351.794454805L142.220007344 348.876821563L131.602447441 347.695675039L120.42122375 348.11144L96.9499307813 353.175403438L72.97042 362.95211L83.3104283398 353.282998965L95.2434604687 346.340512344L108.071067051 342.028997363L121.09479875 340.25280125L133.61620623 340.91627123L144.936840156 343.923754531L154.358251191 349.179598379L161.18199 356.58815L161.18199 356.58815"
     style="color:#000000;fill:#000000;fill-opacity:1;fill-rule:evenodd;stroke:none;stroke-width:0.2;marker:none;visibility:visible;display:inline;overflow:visible;enable-background:accumulate"
     id="path3154"
     inkscape:connector-curvature="0" />
  <path
     d="M262.12148 367.19475L282.1892175 353.164849238L300.882660625 343.388889531L318.238159063 337.763112246L334.2920625 336.18375875L349.080720625 338.54707041L362.640483125 344.749288594L375.007699688 354.686654668L386.21872 368.25541L371.389017422 358.025057891L357.0976025 350.984709375L342.977838203 346.981901172L328.6630875 345.86417L313.786713359 347.479052578L297.98207875 351.674085625L280.882546641 358.296805859L262.12148 367.19475L262.12148 367.19475"
     style="color:#000000;fill:#000000;fill-opacity:1;fill-rule:evenodd;stroke:none;stroke-width:0.2;marker:none;visibility:visible;display:inline;overflow:visible;enable-background:accumulate"
     id="path3156"
     inkscape:connector-curvature="0" />
  <path
     d="M143.84322 417.14184L149.167580313 415.182843281L152.646365 410.93104125L155.34322 400.64184L155.090678125 394.012253125L153.4633975 388.66331L150.338528125 385.053631875L145.59322 383.64184L141.437488594 384.855725937L138.43164125 388.5338025L136.694083281 394.328397812L136.34322 401.89184L137.27156625 409.902999375L138.9876075 414.5741425L141.256455 416.716634375L143.84322 417.14184L143.84322 417.14184"
     style="color:#000000;fill:#000000;fill-opacity:1;fill-rule:evenodd;stroke:none;stroke-width:0.2;marker:none;visibility:visible;display:inline;overflow:visible;enable-background:accumulate"
     id="path3212"
     inkscape:connector-curvature="0" />
  <path
     d="M175.84322 419.89184L173.862307617 407.969012559L169.388840313 397.764791719L163.162670352 389.246734707L155.92365 382.38239875L141.366467188 373.485118906L131.63611 370.81341L116.898926094 376.013610625L104.74086375 382.70138L95.5803620313 390.556839375L89.83586 399.26011L97.66332375 414.40139625L103.267506406 422.144869844L111.44677 428.6492L105.58073 416.7688225L102.19677 403.3992L111.417922812 394.996903438L119.164105 389.56087L133.84322 381.64184L143.23266207 382.687362676L151.362463437 385.748502031L158.271095586 390.351125059L163.99703 396.02109875L172.054691563 408.666566094L175.84322 419.89184L175.84322 419.89184"
     style="color:#000000;fill:#000000;fill-opacity:1;fill-rule:evenodd;stroke:none;stroke-width:0.2;marker:none;visibility:visible;display:inline;overflow:visible;enable-background:accumulate"
     id="path3158"
     inkscape:connector-curvature="0" />
  <path
     d="M321.59322 421.39184L325.859227344 419.92772125L329.44406875 416.120265L331.853485781 410.76109625L332.59322 404.64184L330.1414375 392.98289625L327.024734375 389.495443281L322.22556 388.40795L316.512055781 390.327314688L313.32605625 394.6628175L311.994223594 400.491859062L311.84322 406.89184L314.23087125 416.45837625L317.213375156 420.007299531L321.59322 421.39184L321.59322 421.39184"
     style="color:#000000;fill:#000000;fill-opacity:1;fill-rule:evenodd;stroke:none;stroke-width:0.2;marker:none;visibility:visible;display:inline;overflow:visible;enable-background:accumulate"
     id="path3214"
     inkscape:connector-curvature="0" />
  <path
     d="M259.55562 414.45999L268.379684063 401.562968437L282.4875375 388.3635825L291.426161602 382.590856992L301.569664687 377.870965313L312.879357305 374.580049102L325.31655 373.09425L331.670823281 374.034005938L337.84539375 376.8467725L349.17468 385.34315L354.3968525 391.7995725L357.37345 396.72643L360.39763375 398.5664175L364.20742 399.08042L360.041405 400.08225875L355.54536 399.43397L361.11324 402.79096875L365.97519 404.03017L358.37379 404.91405L362.79794 409.3251825L368.62684 411.27801L364.75076 412.1228675L361.20222 411.98512L364.80016875 414.41306875L369.51072 415.52065L359.90186 415.69405125L354.66148 412.16189L350.997372656 403.836830781L343.87418375 395.63674875L334.410662969 388.760752344L323.72556 384.40795L313.25503623 384.903578691L303.739729219 386.746027031L287.06392125 393.64110125L272.676447656 403.432609844L259.55562 414.45999L259.55562 414.45999"
     style="color:#000000;fill:#000000;fill-opacity:1;fill-rule:evenodd;stroke:none;stroke-width:0.2;marker:none;visibility:visible;display:inline;overflow:visible;enable-background:accumulate"
     id="path3160"
     inkscape:connector-curvature="0" />
  <path
     d="M148.59322 272.39184L148.866826348 290.120565996L150.849737656 305.278637344L157.99351875 330.44699625L166.124650469 353.025277031L169.341750059 364.945750723L171.34322 378.14184L170.45251875 359.02731875L169.04929 339.89413L171.71088875 314.2212875L175.672177656 298.941370937L182.09322 285.14184L181.84322 281.89184L175.138294531 293.780816719L170.37974375 308.74124125L167.415431094 325.901965156L166.09322 344.39184L158.447420469 324.142703125L153.55812125 305.7935225L150.998871406 287.681000625L150.34322 268.14184L148.59322 272.39184L148.59322 272.39184"
     style="color:#000000;fill:#000000;fill-opacity:1;fill-rule:evenodd;stroke:none;stroke-width:0.2;marker:none;visibility:visible;display:inline;overflow:visible;enable-background:accumulate"
     id="path3162"
     inkscape:connector-curvature="0" />
  <path
     d="M182.04164 245.39561L181.25470625 263.643725L181.84322 281.89184L182.09322 285.14184L187.631466875 307.023214844L197.4775525 333.63557375L210.092596875 361.950175781L223.93772 388.93828L217.873044375 357.650265469L215.375845 321.95964875L216.268053984 303.449395137L219.015738125 285.021727656L223.940099453 267.071058535L231.36234 249.9918L230.1249 243.27429L223.322111543 259.365310605L218.231160469 275.734534219L214.740670723 292.213828535L212.73926625 308.63506125L212.758208906 340.630812656L217.39698 370.37673L197.671180625 325.901535312L187.30693 294.181345L183.148869375 269.313567188L182.04164 245.39561L182.04164 245.39561"
     style="color:#000000;fill:#000000;fill-opacity:1;fill-rule:evenodd;stroke:none;stroke-width:0.2;marker:none;visibility:visible;display:inline;overflow:visible;enable-background:accumulate"
     id="path3164"
     inkscape:connector-curvature="0" />
  <path
     d="M230.832 222.41464L230.1249 243.27429L231.36234 249.9918L235.151165781 278.291610469L241.08189125 300.29959125L248.384218594 318.278491406L256.28785 334.49106L255.261084219 314.69561375L258.04316625 287.8708075L264.808950156 258.900285L269.740372207 245.136518828L275.73329 232.66769L279.4456 226.65728L283.15791 215.8739L275.921941855 226.160534766L269.717930469 237.541058125L260.24174125 262.72788L254.401268906 289.722584375L251.86844 316.81339L244.132831406 299.508472656L237.88450375 275.21465125L233.369034219 248.120511719L230.832 222.41464L230.832 222.41464"
     style="color:#000000;fill:#000000;fill-opacity:1;fill-rule:evenodd;stroke:none;stroke-width:0.2;marker:none;visibility:visible;display:inline;overflow:visible;enable-background:accumulate"
     id="path3166"
     inkscape:connector-curvature="0" />
  <path
     d="M279.4456 226.65728L275.73329 232.66769L276.848209961 256.080547285L280.161171562 280.542508906L285.515577383 305.293704512L292.75483 329.57426375L301.722331992 352.62431627L312.261485937 373.683991719L324.215694414 391.993419746L337.42836 406.79273L332.289243848 387.042070078L328.575942031 365.351329375L325.05722125 320.53248L326.133077344 281.101930625L328.162996621 266.146564922L331.06439 255.82543L328.58952 250.52213L324.896753379 261.461002207L322.438360781 276.434480781L321.09338625 314.62033875L324.291973594 357.349867344L331.7715 396.89323L320.336426621 381.475316953L310.138124219 363.106415L301.257398145 342.424649922L293.77505375 320.0681475L287.771896387 296.675033516L283.328731406 272.88343375L280.52636416 249.331473984L279.4456 226.65728L279.4456 226.65728"
     style="color:#000000;fill:#000000;fill-opacity:1;fill-rule:evenodd;stroke:none;stroke-width:0.2;marker:none;visibility:visible;display:inline;overflow:visible;enable-background:accumulate"
     id="path3168"
     inkscape:connector-curvature="0" />
  <path
     d="M313.5635 224.35918L320.752105 237.77211L328.58952 250.52213L331.06439 255.82543L337.42836 271.205L339.04155125 264.3991575L342.3781 257.76997L344.6762 254.94155L353.55360125 243.99103625L363.76808 233.37479L365.35907 231.7838L372.50461625 222.94496375L376.496 213.04547L367.680086094 225.911291406L356.03491625 237.92658375L344.764988281 250.494406719L340.272145566 257.42397334L337.0748 265.01782L326.73674 243.0142375L313.5635 224.35918L313.5635 224.35918"
     style="color:#000000;fill:#000000;fill-opacity:1;fill-rule:evenodd;stroke:none;stroke-width:0.2;marker:none;visibility:visible;display:inline;overflow:visible;enable-background:accumulate"
     id="path3170"
     inkscape:connector-curvature="0" />
  <path
     d="M347.32785 219.58621L342.55624625 230.457975L339.54967 241.32974L347.32785 219.58621L347.32785 219.58621"
     style="color:#000000;fill:#000000;fill-opacity:1;fill-rule:evenodd;stroke:none;stroke-width:0.2;marker:none;visibility:visible;display:inline;overflow:visible;enable-background:accumulate"
     id="path3172"
     inkscape:connector-curvature="0" />
  <path
     d="M342.3781 257.76997L347.758190332 272.522685508L351.287689531 289.388007812L354.17937375 326.9405425L352.9847 399.72166L363.091913906 385.155755L372.48911875 364.13037L380.972949219 334.472515L388.34004 294.0092L390.81492 285.52392L388.1184825 277.46683625L384.45096 271.02823L383.993611406 298.841064375L378.63352875 332.1772625L368.890121719 365.344534375L362.53698709 380.085982344L355.2828 392.65059L357.333839375 365.831105469L357.6664075 327.20766625L354.155521875 286.878428906L350.294726875 269.229809863L344.6762 254.94155L342.3781 257.76997L342.3781 257.76997"
     style="color:#000000;fill:#000000;fill-opacity:1;fill-rule:evenodd;stroke:none;stroke-width:0.2;marker:none;visibility:visible;display:inline;overflow:visible;enable-background:accumulate"
     id="path3174"
     inkscape:connector-curvature="0" />
  <path
     d="M363.76808 233.37479L376.704444844 252.393261875L383.53853125 267.9445325L386.630382031 281.369534375L388.34004 294.0092L396.513719844 328.938132812L403.14464125 365.5604625L409.179164531 396.017255938L412.268514473 406.477659961L415.56365 412.44958L455.86874 332.19296L444.608299375 350.0902125L433.114725 371.5300825L415.38688 406.49463L409.778838281 386.274266719L404.22459125 354.81025875L398.108498594 318.945758906L390.81492 285.52392L387.602065156 268.585084062L381.47391625 253.9374025L373.652306719 241.647949688L365.35907 231.7838L363.76808 233.37479L363.76808 233.37479"
     style="color:#000000;fill:#000000;fill-opacity:1;fill-rule:evenodd;stroke:none;stroke-width:0.2;marker:none;visibility:visible;display:inline;overflow:visible;enable-background:accumulate"
     id="path3176"
     inkscape:connector-curvature="0" />
  <path
     d="M447.73701 247.6937L451.42621541 260.787185859L451.210351406 277.87999L447.946712637 297.879874766L442.49259375 319.6946025L428.442094219 364.39963625L415.91721 403.25719L424.925905312 367.448861562L437.4649275 326.27094L443.074175039 305.222083555L447.185040937 284.695270938L449.003870742 265.311982852L447.73701 247.6937L447.73701 247.6937"
     style="color:#000000;fill:#000000;fill-opacity:1;fill-rule:evenodd;stroke:none;stroke-width:0.2;marker:none;visibility:visible;display:inline;overflow:visible;enable-background:accumulate"
     id="path3178"
     inkscape:connector-curvature="0" />
  <path
     d="M254.09322 122.64185L247.281182207 125.955275234L241.111680781 130.5537725L230.23637875 142.6781675L211.09322 172.14185L219.836559375 155.180198281L229.22101 139.68394625L240.291565625 128.041646094L246.785693359 124.412150527L254.09322 122.64185L254.09322 122.64185"
     style="color:#000000;fill:#000000;fill-opacity:1;fill-rule:evenodd;stroke:none;stroke-width:0.2;marker:none;visibility:visible;display:inline;overflow:visible;enable-background:accumulate"
     id="path3180"
     inkscape:connector-curvature="0" />
  <path
     d="M156.09322 163.64185L148.261555625 171.684185937L142.1271 180.405405L133.09322 199.14185L156.09322 163.64185L156.09322 163.64185"
     style="color:#000000;fill:#000000;fill-opacity:1;fill-rule:evenodd;stroke:none;stroke-width:0.2;marker:none;visibility:visible;display:inline;overflow:visible;enable-background:accumulate"
     id="path3182"
     inkscape:connector-curvature="0" />
  <path
     d="M63.37355 392.09895L62.7091921484 408.420420547L63.9881890625 425.38675L65.6368014453 443.179457578L66.08129 461.9800625L63.7479154297 481.970083984L57.0629384375 503.33104125L44.4526197266 526.244453516L24.34322 550.89184L43.079272793 542.402063613L57.8139742187 532.997500156L69.2243238477 523.201046934L77.98732125 513.53560125L90.2792576562 496.689321719L95.1621958008 490.55428248L100.10578 486.64184L99.40388 482.87928L94.592334375 486.418364277L89.383628125 492.586811094L76.5284625 509.94974125L68.2588675 519.713199043L58.345840625 529.243968281L46.4778140625 537.826536191L32.34322 544.74539L50.5503806641 521.857869844L61.8415515625 500.456869375L67.6897760547 480.406211094L69.5680975 461.5697175L68.9495592578 443.811211094L67.3072046875 426.994514375L66.1140771484 410.983449844L66.84322 395.64184L63.37355 392.09895L63.37355 392.09895"
     style="color:#000000;fill:#000000;fill-opacity:1;fill-rule:evenodd;stroke:none;stroke-width:0.2;marker:none;visibility:visible;display:inline;overflow:visible;enable-background:accumulate"
     id="path3184"
     inkscape:connector-curvature="0" />
  <path
     d="M73.67753 405.02496L80.1918191797 414.640208203L85.3754871875 424.807921875L92.5273475 445.76241L96.6858865625 465.811753125L99.40388 482.87928L100.10578 486.64184L102.515025 498.398536406L107.938535 511.83231625L117.6436525 526.030985469L132.89772 540.08235L176.76418 576.24964L193.107699219 587.651434375L201.584384395 592.023458359L210.69421875 595.15813L220.759601387 596.791871641L232.102931406 596.661105625L245.04660791 594.502254297L259.91303 590.05174L304.56854 573.387214375L322.460988125 565.104353828L339.338045 555.289915L356.655820625 542.770513047L375.870425 526.372763125L425.81456 477.24868L424.8997 474.01867L372.356993594 524.811477188L351.42468666 542.050800977L332.70931375 555.1841375L315.204052246 565.210536211L297.902079531 573.129046562L259.88071 586.6386L242.599920156 591.514829219L226.04811625 593.53338875L209.726661719 591.403156406L193.13692 583.83301L175.888538438 571.769292344L162.103445 560.35094875L134.48871 536.90038L120.186768613 522.994024766L110.958805156 507.97332375L105.395514434 492.169206484L102.08759125 475.9126025L96.6006267187 443.3656525L91.6029749805 427.737165547L83.22347 412.97991L73.67753 405.02496L73.67753 405.02496"
     style="color:#000000;fill:#000000;fill-opacity:1;fill-rule:evenodd;stroke:none;stroke-width:0.2;marker:none;visibility:visible;display:inline;overflow:visible;enable-background:accumulate"
     id="path3186"
     inkscape:connector-curvature="0" />
  <path
     d="M113.09322 518.39184L117.625646426 531.677039277L117.882901406 546.694681719L114.457759746 563.006552988L107.94299625 580.17443875L98.9313857227 597.760124668L88.0157029688 615.325396406L62.84322 648.64184L93.6892857813 629.548686875L121.67421125 607.9521425L133.404885332 596.089548594L142.993641094 583.450446875L149.964934121 569.984617344L153.84322 555.64184L150.09322 552.14184L147.368796426 565.932010762L140.860777656 579.512022969L131.470700371 592.579431504L120.10010125 604.83179125L95.0234842188 625.681583906L72.84322 639.64184L96.81713375 606.358238906L113.4623775 574.95388375L118.632557891 560.472745957L121.4855425 547.081006719L121.859655234 534.985195059L119.59322 524.39184L113.09322 518.39184L113.09322 518.39184"
     style="color:#000000;fill:#000000;fill-opacity:1;fill-rule:evenodd;stroke:none;stroke-width:0.2;marker:none;visibility:visible;display:inline;overflow:visible;enable-background:accumulate"
     id="path3188"
     inkscape:connector-curvature="0" />
  <path
     d="M140.84322 545.39184L139.507100938 559.949022344L134.383345 573.84193625L126.614526563 587.259802031L117.34322 600.39184L127.560632813 588.015032812L136.1490625 575.2503725L142.147070938 561.868945938L144.59322 547.64184L140.84322 545.39184L140.84322 545.39184"
     style="color:#000000;fill:#000000;fill-opacity:1;fill-rule:evenodd;stroke:none;stroke-width:0.2;marker:none;visibility:visible;display:inline;overflow:visible;enable-background:accumulate"
     id="path3190"
     inkscape:connector-curvature="0" />
  <path
     d="M443.84322 387.64184L460.6593175 378.24106125L484.09322 370.89184L477.59084 375.26565L469.09322 378.64184L469.320170469 387.641563281L465.21282875 398.60019375L453.34322 418.89184L462.73119875 397.19170375L465.662190781 387.166776719L465.34322 379.89184L453.22897 385.48948125L447.627513125 387.848676719L443.84322 387.64184L443.84322 387.64184"
     style="color:#000000;fill:#000000;fill-opacity:1;fill-rule:evenodd;stroke:none;stroke-width:0.2;marker:none;visibility:visible;display:inline;overflow:visible;enable-background:accumulate"
     id="path3192"
     inkscape:connector-curvature="0" />
  <path
     d="M451.34322 352.64184L460.919674375 348.4172725L468.94619 344.0722625L477.330095625 342.69129375L482.252109922 344.076226016L487.97872 347.35885L490.44526 350.05617L497.236560938 360.836361406L497.5962575 370.64679625L492.854945313 381.995835469L484.34322 397.39184L471.50081625 423.44805375L460.34322 449.64184L455.775304062 459.816750156L450.5685625 466.25378125L441.616984688 471.286551719L425.81456 477.24868L424.8997 474.01867L441.889239062 467.625654375L450.0112975 462.3844325L454.125937187 455.116121875L459.09322 442.64184L470.88981875 416.31492L484.34322 390.14184L490.210474844 379.764057188L493.80029375 370.7776275L493.474075781 362.098304063L487.59322 352.64184L482.96957041 348.441405645L478.674128906 346.287509531L470.46425375 346.42650375L461.756361719 349.673166094L451.34322 352.64184L451.34322 352.64184"
     style="color:#000000;fill:#000000;fill-opacity:1;fill-rule:evenodd;stroke:none;stroke-width:0.2;marker:none;visibility:visible;display:inline;overflow:visible;enable-background:accumulate"
     id="path3194"
     inkscape:connector-curvature="0" />
  <path
     d="M479.55682 403.9643L472.598721914 436.053419492L469.573078437 463.656922813L470.315798242 486.157030977L474.66279 502.935965L478.136609321 508.986935776L482.449962383 513.375945898L487.582337769 516.025772993L493.513224062 516.859194688L500.222109849 515.798988608L507.688483711 512.767932383L524.81165 500.48438L521.618048359 512.055456504L514.93957125 523.363670781L505.428089141 533.72081873L493.7354725 542.43869625L480.513591797 548.829099238L466.4143175 552.203823594L452.089520078 551.874665215L438.19107 547.15342L436.4233 542.20368L450.11765543 548.068348984L463.982359062 549.32565125L477.510069414 546.775391016L490.193445 541.2173725L501.525144336 533.451399922L510.997825938 524.2772775L518.10414832 514.494809453L522.33677 504.9038L510.356193125 513.448555625L499.88825 518.3019575L490.889931875 519.786835625L483.31823 518.22602L484.6286425 521.18150625L488.29413 525.52453L484.068497813 523.367982188L481.0679625 520.100555L477.76053 514.61103L472.998884668 507.081278027L469.477506719 498.446627344L466.06969625 477.40619625L467.365385156 450.576869531L473.19286 417.04578L479.55682 403.9643L479.55682 403.9643"
     style="color:#000000;fill:#000000;fill-opacity:1;fill-rule:evenodd;stroke:none;stroke-width:0.2;marker:none;visibility:visible;display:inline;overflow:visible;enable-background:accumulate"
     id="path3196"
     inkscape:connector-curvature="0" />
  <path
     d="M437.34322 472.14184L438.3497525 492.26684L442.34322 512.39184L438.834306562 503.413034375L436.609785 493.631485L434.84322 472.39184L437.34322 472.14184L437.34322 472.14184"
     style="color:#000000;fill:#000000;fill-opacity:1;fill-rule:evenodd;stroke:none;stroke-width:0.2;marker:none;visibility:visible;display:inline;overflow:visible;enable-background:accumulate"
     id="path3198"
     inkscape:connector-curvature="0" />
  <path
     d="M426.09322 476.39184L427.422611719 506.22354625L432.63570125 529.4998175L440.824500156 547.6815825L451.08102 562.22977L463.246165781 574.178312344L468.530982012 576.55287291L473.82115125 576.61806875L479.519566582 574.441731621L486.029121094 570.091693281L503.09322 555.14184L501.649753728 570.993045249L497.631190918 584.79917168L491.407365579 596.486630317L483.348111719 605.981832188L473.823263347 613.211188315L463.202654473 618.101109727L451.856119104 620.578007446L440.15349125 620.5682925L428.464604919 617.998375913L417.159294121 612.794668711L406.607392864 604.883581919L397.178735156 594.191526563L389.243155007 580.644913667L383.170486426 564.170154258L379.33056342 544.69365936L378.09322 522.14184L382.34322 517.64184L383.197408403 540.582067185L386.515163789 560.259798574L391.954441421 576.796383918L399.173196562 590.313172969L407.829384478 600.931515476L417.58096043 608.772761191L428.085879683 613.958259866L439.0020975 616.60936125L449.987569146 616.847415095L460.700249883 614.793771152L470.798094976 610.569779172L479.939059687 604.296788906L487.781099282 596.096150105L493.982169023 586.08921252L498.200224175 574.397325901L500.09322 561.14184L483.741516875 575.881742187L477.169948594 579.402231445L471.2654275 580.5311875L465.726097344 579.399691367L460.250101875 576.138824063L448.28069 563.7533L438.27527875 549.442997813L429.7173 530.93638L423.95664875 507.560357187L422.34322 478.64184L426.09322 476.39184L426.09322 476.39184"
     style="color:#000000;fill:#000000;fill-opacity:1;fill-rule:evenodd;stroke:none;stroke-width:0.2;marker:none;visibility:visible;display:inline;overflow:visible;enable-background:accumulate"
     id="path3200"
     inkscape:connector-curvature="0" />
  <path
     d="M412.09322 488.89184L412.18752625 510.233247031L415.546635 534.43382375L418.804705937 546.393750254L423.30403625 557.613408594L429.186312187 567.607778574L436.59322 575.89184L428.969414277 569.086035547L422.764521719 560.627121875L417.876057988 550.800518516L414.20153875 539.891645L410.084396406 515.968765625L409.59322 491.14184L412.09322 488.89184L412.09322 488.89184"
     style="color:#000000;fill:#000000;fill-opacity:1;fill-rule:evenodd;stroke:none;stroke-width:0.2;marker:none;visibility:visible;display:inline;overflow:visible;enable-background:accumulate"
     id="path3202"
     inkscape:connector-curvature="0" />
  <path
     d="M243.38316 593.99925L253.374791406 609.581334219L260.12310875 624.02690125L264.246694219 637.821747656L266.36413 651.45167L265.947679531 639.425201875L264.11296875 626.1946125L258.984421094 610.787504375L248.68646 592.23148L243.38316 593.99925L243.38316 593.99925"
     style="color:#000000;fill:#000000;fill-opacity:1;fill-rule:evenodd;stroke:none;stroke-width:0.2;marker:none;visibility:visible;display:inline;overflow:visible;enable-background:accumulate"
     id="path3177"
     inkscape:connector-curvature="0" />
  <path
     d="M158.34322 275.14184L157.552037031 295.585012344L158.60525125 315.13051625L161.777449844 332.681682031L167.34322 347.14184L163.246175313 330.148145469L160.63249 311.87874875L158.34322 275.14184L158.34322 275.14184"
     style="color:#000000;fill:#000000;fill-opacity:1;fill-rule:evenodd;stroke:none;stroke-width:0.2;marker:none;visibility:visible;display:inline;overflow:visible;enable-background:accumulate"
     id="path3179"
     inkscape:connector-curvature="0" />
  <path
     d="M66.84322 334.89184L80.34322 396.39184L71.10470875 366.63724375L68.2145204688 351.068319531L66.84322 334.89184L66.84322 334.89184"
     style="color:#000000;fill:#000000;fill-opacity:1;fill-rule:evenodd;stroke:none;stroke-width:0.2;marker:none;visibility:visible;display:inline;overflow:visible;enable-background:accumulate"
     id="path3181"
     inkscape:connector-curvature="0" />
  <path
     d="M123.59322 386.50796L122.9604075 395.4889625L123.59322 412.39184L127.6010325 424.9777775L130.34322 429.64184L126.5229075 425.4934025L123.303180938 420.545160313L120.59322 413.89184L118.7885325 397.7233375L119.09322 389.00796L123.59322 386.50796L123.59322 386.50796"
     style="color:#000000;fill:#000000;fill-opacity:1;fill-rule:evenodd;stroke:none;stroke-width:0.2;marker:none;visibility:visible;display:inline;overflow:visible;enable-background:accumulate"
     id="path3183"
     inkscape:connector-curvature="0" />
  <path
     d="M298.97682 386.83105L295.811602031 400.473166562L295.31644125 412.18567L297.469712344 421.514583437L302.24979 428.00593L298.409793906 417.776015L297.81627125 407.28687L299.681925469 396.7309525L303.21946 386.30072L298.97682 386.83105L298.97682 386.83105"
     style="color:#000000;fill:#000000;fill-opacity:1;fill-rule:evenodd;stroke:none;stroke-width:0.2;marker:none;visibility:visible;display:inline;overflow:visible;enable-background:accumulate"
     id="path3185"
     inkscape:connector-curvature="0" />
  <path
     d="M80.84322 415.26684L79.20230625 437.83274L79.34322 463.51684L80.640465 439.33662375L83.09322 418.39184L80.84322 415.26684L80.84322 415.26684"
     style="color:#000000;fill:#000000;fill-opacity:1;fill-rule:evenodd;stroke:none;stroke-width:0.2;marker:none;visibility:visible;display:inline;overflow:visible;enable-background:accumulate"
     id="path3187"
     inkscape:connector-curvature="0" />
  <path
     d="M165.18941 426.19209L156.045742031 431.343618281L146.78717875 433.18069125L137.698481094 432.367213594L129.06441 429.56709L123.43941 436.19209L127.1520175 434.62498125L133.31441 434.19209L131.962545 436.24474875L129.68941 438.06709L134.767615 436.09900625L142.06441 434.44209L140.31441 438.19209L143.93261 437.18360125L146.56441 434.94209L153.256068125 434.453635781L158.2342425 432.58797625L165.18941 426.19209L165.18941 426.19209"
     style="color:#000000;fill:#000000;fill-opacity:1;fill-rule:evenodd;stroke:none;stroke-width:0.2;marker:none;visibility:visible;display:inline;overflow:visible;enable-background:accumulate"
     id="path3189"
     inkscape:connector-curvature="0" />
  <path
     d="M326.46822 432.51684L339.07024 426.876605L351.71822 420.01684L353.91331 420.77392625L353.73837 422.4486L341.59322 427.14184L345.96822 428.89184L343.84322 429.64184L346.34322 432.01684L338.09322 431.64184L342.71822 435.14184L337.66569125 434.43772125L333.34322 432.51684L329.74284625 433.37808375L326.46822 432.51684L326.46822 432.51684"
     style="color:#000000;fill:#000000;fill-opacity:1;fill-rule:evenodd;stroke:none;stroke-width:0.2;marker:none;visibility:visible;display:inline;overflow:visible;enable-background:accumulate"
     id="path3195"
     inkscape:connector-curvature="0" />
  <path
     d="M288.5496 429.95048L289.505067344 432.138754531L292.77990875 434.42993375L298.4491 436.13765L297.639369375 433.903616094L294.577805 431.48055125L290.977013125 429.839243281L288.5496 429.95048L288.5496 429.95048"
     style="color:#000000;fill:#000000;fill-opacity:1;fill-rule:evenodd;stroke:none;stroke-width:0.2;marker:none;visibility:visible;display:inline;overflow:visible;enable-background:accumulate"
     id="path3197"
     inkscape:connector-curvature="0" />
  <path
     d="M299.68653 431.18791L300.868355 436.08322375L304.81306 440.11513L306.36427625 437.76916L308.87892 436.22605L316.74548 440.64546L314.62416 437.02154L318.434565 439.61979375L322.57911 440.3803L320.0880925 438.365635L318.24809 434.72344L323.50994375 437.20859625L330.97601 438.25898L326.20304 436.40631875L321.43007 432.86729L309.3886975 433.5390075L299.68653 431.18791L299.68653 431.18791"
     style="color:#000000;fill:#000000;fill-opacity:1;fill-rule:evenodd;stroke:none;stroke-width:0.2;marker:none;visibility:visible;display:inline;overflow:visible;enable-background:accumulate"
     id="path3199"
     inkscape:connector-curvature="0" />
  <path
     d="M228.96822 508.64184L224.878930469 506.481507187L220.38600875 505.8078675L211.21822 506.01684L196.71216 506.95083375L193.660103125 508.943492344L194.21822 512.39184L196.14640375 514.570891875L197.02653 513.2227875L197.94000125 510.615459375L199.96822 509.01684L212.65728 508.33205625L224.96822 510.14184L226.166896094 512.065565312L224.43661125 514.91057L217.21822 520.89184L222.43084875 519.809065L226.84322 517.14184L230.14454125 513.43107875L230.543073594 511.055315781L228.96822 508.64184L228.96822 508.64184"
     style="color:#000000;fill:#000000;fill-opacity:1;fill-rule:evenodd;stroke:none;stroke-width:0.2;marker:none;visibility:visible;display:inline;overflow:visible;enable-background:accumulate"
     id="path3208"
     inkscape:connector-curvature="0" />
  <path
     d="M213.34322 520.14184L210.6499625 518.95360375L205.46822 518.26684L201.32279875 516.29617875L198.21822 515.51684L199.907425 518.14724625L203.96822 520.14184L209.66943125 521.25070375L213.34322 520.14184L213.34322 520.14184"
     style="color:#000000;fill:#000000;fill-opacity:1;fill-rule:evenodd;stroke:none;stroke-width:0.2;marker:none;visibility:visible;display:inline;overflow:visible;enable-background:accumulate"
     id="path3210"
     inkscape:connector-curvature="0" />
  <path
     d="M200.9241 430.8992L196.971428281 443.285764375L192.81461875 451.516845L189.272597344 457.499763125L187.16429 463.14184L189.50815 469.6891675L193.387989688 474.0604375L199.40721 478.14184L191.10754125 469.8768225L187.93827 463.86614L190.134580781 458.673927031L194.69589375 452.06150375L199.124852344 443.109663594L200.9241 430.8992L200.9241 430.8992"
     style="color:#000000;fill:#000000;fill-opacity:1;fill-rule:evenodd;stroke:none;stroke-width:0.40000001;marker:none;visibility:visible;display:inline;overflow:visible;enable-background:accumulate"
     id="path3204"
     inkscape:connector-curvature="0" />
</svg>
